<svg width="35" height="30" viewBox="0 0 35 30" fill="none" xmlns="http://www.w3.org/2000/svg">
<path d="M34.0384 11.3405H24.6223V0.507198C24.6223 0.108328 24.2988 -0.214844 23.8988 -0.214844H0.724025C0.32406 -0.214844 0 0.108328 0 0.507198V19.2852C0 19.684 0.32406 20.0067 0.724025 20.0067H2.89664V24.34L10.7183 20.0067H14.4843V26.5067C14.4843 26.9065 14.8084 27.2303 15.2083 27.2303H26.7949L31.8658 30.1185V27.2303H34.0384C34.4373 27.2303 34.7619 26.9066 34.7619 26.5067V12.0631C34.7619 11.6642 34.4373 11.3405 34.0384 11.3405ZM10.3428 18.5637L10.015 18.7446L4.34524 21.8856V20.0067V18.5637H2.89664H1.44859V1.22978H23.1753V18.5637H10.7183H10.3428ZM33.3128 25.7852H31.8658H30.4167V27.2303V27.6302L27.5142 25.9756L27.1811 25.7852H26.7949H15.9324V20.0067H23.8988C24.2988 20.0067 24.6223 19.684 24.6223 19.2852V12.7852H33.3128V25.7852Z" fill="#272727"/>
<path d="M12.3128 4.11816C11.1782 4.11816 10.277 4.46145 9.63416 5.13751C8.61893 6.20602 8.68785 7.70515 8.69158 7.76859L8.69267 7.76805C8.71283 8.14891 9.02793 8.4515 9.41459 8.4515C9.81455 8.4515 10.1392 8.12832 10.1392 7.72946C10.1392 7.71781 10.1376 7.70616 10.1371 7.69452H10.1381C10.1376 7.68497 10.1053 6.73387 10.6924 6.12402C11.051 5.75163 11.5962 5.56279 12.3129 5.56279C13.1738 5.56279 13.7535 5.7712 14.0861 6.20128C14.3491 6.5409 14.4828 7.05555 14.4844 7.73054C14.4849 8.21452 14.068 8.83608 13.31 9.48141C12.6496 10.0437 11.9707 10.4177 11.9649 10.4209L11.5877 10.6261L11.5867 12.7837H11.5888V12.7843C11.5888 13.1832 11.9134 13.5063 12.3133 13.5063C12.7133 13.5063 13.0374 13.1832 13.0374 12.7843C13.0374 12.77 13.0363 12.7563 13.0353 12.742L13.0358 11.4677C13.9205 10.9197 15.9356 9.47877 15.9324 7.7279C15.9282 5.39988 14.6429 4.11816 12.3128 4.11816Z" fill="#272727"/>
<path d="M12.3116 14.2295C11.9116 14.2295 11.587 14.5527 11.587 14.9515C11.587 15.3504 11.9116 15.6736 12.3116 15.6736C12.7116 15.6736 13.0356 15.3504 13.0356 14.9515C13.0356 14.5527 12.7116 14.2295 12.3116 14.2295Z" fill="#272727"/>
</svg>
