<svg width="19" height="18" viewBox="0 0 19 18" fill="none" xmlns="http://www.w3.org/2000/svg">
<path d="M9.07364 1.79547L12.8395 5.56133L13.051 5.77281L12.8395 5.9843L10.5058 8.31802L10.2943 8.5295L10.0828 8.31802L6.31695 4.55215L6.10547 4.34067L6.31695 4.12919L8.65067 1.79547L8.86216 1.58398L9.07364 1.79547ZM12.2088 5.7691L8.86587 2.4262L6.9514 4.34067L10.2943 7.68357L12.2088 5.7691Z" fill="#272727"/>
<path d="M9.16784 0.367311C9.40901 0.608475 9.53144 0.927553 9.53144 1.24663C9.53144 1.56571 9.40901 1.88479 9.16784 2.12595L6.64861 4.64519C6.40744 4.88635 6.08837 5.00508 5.76929 5.00508C5.45021 5.00508 5.13113 4.88264 4.88997 4.64148C4.6488 4.40031 4.52637 4.08123 4.52637 3.76216C4.52637 3.44308 4.6488 3.124 4.88997 2.88284L7.4092 0.363601C7.65037 0.122437 7.96944 0 8.28852 0C8.6076 0 8.92668 0.122437 9.16784 0.363601V0.367311ZM8.93781 1.24663C8.93781 1.07967 8.87474 0.912712 8.74859 0.786565C8.62244 0.660418 8.45548 0.597344 8.28852 0.597344C8.12156 0.597344 7.9546 0.660418 7.82846 0.786565L5.30922 3.3058C5.18307 3.43195 5.12 3.59891 5.12 3.76587C5.12 3.93283 5.18307 4.09978 5.30922 4.22593C5.43537 4.35208 5.60233 4.41515 5.76929 4.41515C5.93625 4.41515 6.0995 4.35208 6.22935 4.22593L8.74859 1.7067C8.87474 1.58055 8.93781 1.41359 8.93781 1.24663Z" fill="#272727"/>
<path d="M14.2704 5.46886C14.5115 5.71002 14.634 6.02909 14.634 6.34816C14.634 6.66723 14.5115 6.9863 14.2704 7.22746L11.7511 9.74663C11.51 9.98779 11.1909 10.1065 10.8718 10.1065C10.5527 10.1065 10.2337 9.98408 9.99251 9.74292C9.75134 9.50176 9.62891 9.18269 9.62891 8.86362C9.62891 8.54455 9.75134 8.22548 9.99251 7.98432L12.5117 5.46515C12.7529 5.224 13.072 5.10156 13.3911 5.10156C13.7101 5.10156 14.0292 5.224 14.2704 5.46515V5.46886ZM14.0403 6.34816C14.0403 6.18121 13.9773 6.01425 13.8511 5.88811C13.725 5.76196 13.558 5.69889 13.3911 5.69889C13.2241 5.69889 13.0571 5.76196 12.931 5.88811L10.4118 8.40728C10.2856 8.53342 10.2225 8.70038 10.2225 8.86733C10.2225 9.03429 10.2856 9.20124 10.4118 9.32739C10.5379 9.45353 10.7049 9.5166 10.8718 9.5166C11.0388 9.5166 11.202 9.45353 11.3319 9.32739L13.8511 6.80822C13.9773 6.68207 14.0403 6.51512 14.0403 6.34816Z" fill="#272727"/>
<path d="M7.98809 5.38355L9.25327 6.64874L9.45733 6.8528L9.26069 7.06057L2.36712 14.3623C2.34856 14.3808 2.35598 14.3734 2.34856 14.3808C2.17789 14.5515 1.95157 14.6331 1.72525 14.6331C1.50264 14.6331 1.27631 14.5478 1.10564 14.3845C1.08709 14.366 1.09451 14.3771 1.08709 14.366L0.267135 13.546C0.259715 13.5386 0.267135 13.546 0.248584 13.5275C0.0853349 13.3568 0.00371021 13.1305 0 12.9079C0 12.6815 0.0816247 12.4552 0.252294 12.2845C0.259715 12.2771 0.252294 12.2845 0.270846 12.266L7.57254 5.37242L7.78032 5.17578L7.98438 5.37984L7.98809 5.38355ZM8.62995 6.86393L7.77289 6.00687L0.678969 12.7001C0.667838 12.7112 0.686389 12.6927 0.675259 12.7075C0.619605 12.7632 0.593634 12.8337 0.593634 12.9116C0.593634 12.9895 0.623316 13.0674 0.678969 13.1268C0.686389 13.1342 0.671548 13.1156 0.686389 13.1342L1.50635 13.9541C1.52119 13.969 1.50635 13.9541 1.51377 13.9616C1.57313 14.0172 1.65104 14.0469 1.72896 14.0469C1.80316 14.0469 1.87737 14.0209 1.93302 13.9653C1.94786 13.9504 1.92931 13.969 1.94044 13.9616L8.63366 6.86764L8.62995 6.86393Z" fill="#272727"/>
<path d="M9.71625 15.0898H18.2126C18.4278 15.0898 18.6245 15.1789 18.7692 15.3199C18.9102 15.4609 18.9992 15.6575 18.9992 15.8764V16.637C18.9992 16.8522 18.9102 17.0488 18.7692 17.1935C18.6282 17.3345 18.4315 17.4236 18.2126 17.4236H9.71625C9.50106 17.4236 9.30442 17.3345 9.15972 17.1935C9.01873 17.0525 8.92969 16.8559 8.92969 16.637V15.8764C8.92969 15.6612 9.01873 15.4646 9.15972 15.3199C9.30071 15.1789 9.49735 15.0898 9.71625 15.0898ZM18.2126 15.6835H9.71625C9.66431 15.6835 9.61608 15.7057 9.57897 15.7391C9.54558 15.7725 9.52332 15.8208 9.52332 15.8764V16.637C9.52332 16.6889 9.54558 16.7372 9.57897 16.7743C9.61237 16.8077 9.6606 16.8299 9.71625 16.8299H18.2126C18.2646 16.8299 18.3128 16.8077 18.3499 16.7743C18.3833 16.7409 18.4056 16.6927 18.4056 16.637V15.8764C18.4056 15.8245 18.3833 15.7762 18.3499 15.7391C18.3165 15.7057 18.2683 15.6835 18.2126 15.6835Z" fill="#272727"/>
<path d="M10.9702 13.3496H16.9586C17.1738 13.3496 17.3704 13.4387 17.5151 13.5796C17.6561 13.7206 17.7451 13.9173 17.7451 14.1362V14.8968C17.7451 15.112 17.6561 15.3086 17.5151 15.4533C17.3741 15.5943 17.1775 15.6833 16.9586 15.6833H10.9702C10.755 15.6833 10.5583 15.5943 10.4136 15.4533C10.2726 15.3123 10.1836 15.1157 10.1836 14.8968V14.1362C10.1836 13.921 10.2726 13.7243 10.4136 13.5796C10.5546 13.4387 10.7513 13.3496 10.9702 13.3496ZM16.9586 13.9432H10.9702C10.9182 13.9432 10.87 13.9655 10.8329 13.9989C10.7995 14.0323 10.7772 14.0805 10.7772 14.1362V14.8968C10.7772 14.9487 10.7995 14.9969 10.8329 15.034C10.8663 15.0674 10.9145 15.0897 10.9702 15.0897H16.9586C17.0105 15.0897 17.0587 15.0674 17.0958 15.034C17.1292 15.0007 17.1515 14.9524 17.1515 14.8968V14.1362C17.1515 14.0842 17.1292 14.036 17.0958 13.9989C17.0624 13.9655 17.0142 13.9432 16.9586 13.9432Z" fill="#272727"/>
</svg>
