<svg width="24" height="24" viewBox="0 0 24 24" fill="none" xmlns="http://www.w3.org/2000/svg">
<circle cx="12" cy="12" r="11.5" stroke="#C6C6C6"/>
<path d="M12.64 17H11.035V9.8H12.64V17ZM12.82 7.46C12.82 7.77 12.725 8.01 12.535 8.18C12.355 8.34 12.125 8.42 11.845 8.42C11.565 8.42 11.33 8.34 11.14 8.18C10.95 8.01 10.855 7.77 10.855 7.46C10.855 7.16 10.95 6.93 11.14 6.77C11.33 6.6 11.565 6.515 11.845 6.515C12.125 6.515 12.355 6.6 12.535 6.77C12.725 6.93 12.82 7.16 12.82 7.46Z" fill="#C6C6C6"/>
</svg>
