<svg width="38" height="22" viewBox="0 0 38 22" fill="none" xmlns="http://www.w3.org/2000/svg">
<path d="M37.0648 10.58C33.2797 4.1749 26.407 0.159668 19 0.159668C11.5929 0.159668 4.71287 4.1749 0.935132 10.58C0.779272 10.8101 0.779272 11.1218 0.935132 11.3519C4.72029 17.7569 11.5929 21.7722 19 21.7722C26.407 21.7722 33.2871 17.7569 37.0648 11.3519C37.2207 11.1218 37.2207 10.8101 37.0648 10.58ZM19 20.2284C12.2832 20.2284 6.02654 16.6808 2.5531 10.9659C6.02654 5.25108 12.2832 1.70342 19 1.70342C25.7168 1.70342 31.9734 5.25108 35.4469 10.9659C31.9734 16.6808 25.7168 20.2284 19 20.2284Z" fill="#272727"/>
<path d="M19 4.01904C15.1406 4.01904 12.0531 7.10654 12.0531 10.9659C12.0531 14.8253 15.1406 17.9128 19 17.9128C22.8593 17.9128 25.9468 14.8253 25.9468 10.9659C25.9468 7.10654 22.8593 4.01904 19 4.01904ZM19 16.369C15.9867 16.369 13.5969 13.9718 13.5969 10.9659C13.5969 7.96006 15.9941 5.56279 19 5.56279C22.0058 5.56279 24.4031 7.96006 24.4031 10.9659C24.4031 13.9718 22.0133 16.369 19 16.369Z" fill="#272727"/>
<path d="M19 7.87842V9.42217C19.8461 9.42217 20.5437 10.1198 20.5437 10.9659C20.5437 11.812 19.8461 12.5097 19 12.5097C18.1539 12.5097 17.4562 11.812 17.4562 10.9659H15.9125C15.9125 12.6655 17.3004 14.0534 19 14.0534C20.6996 14.0534 22.0875 12.6655 22.0875 10.9659C22.0875 9.26631 20.6996 7.87842 19 7.87842Z" fill="#272727"/>
</svg>
