<svg width="33" height="33" viewBox="0 0 33 33" fill="none" xmlns="http://www.w3.org/2000/svg">
<path d="M32.6511 15.8781L32.6523 15.8762L18.977 7.42343C19.2267 7.03568 19.3792 6.59337 19.4214 6.13408C19.484 5.44078 19.2984 4.74779 18.8977 4.17859C18.4969 3.60938 17.9071 3.20095 17.2333 3.02607V1.46667H18.7C18.7972 1.46667 18.8905 1.42804 18.9593 1.35927C19.028 1.29051 19.0667 1.19725 19.0667 1.1V0.366667C19.0667 0.269421 19.028 0.176158 18.9593 0.107394C18.8905 0.0386309 18.7972 0 18.7 0H14.3C14.2028 0 14.1095 0.0386309 14.0407 0.107394C13.972 0.176158 13.9333 0.269421 13.9333 0.366667V1.1C13.9333 1.19725 13.972 1.29051 14.0407 1.35927C14.1095 1.42804 14.2028 1.46667 14.3 1.46667H15.7667V4.4H16.5C16.7228 4.40035 16.9426 4.45133 17.1428 4.54911C17.3429 4.64688 17.5183 4.78888 17.6555 4.96438C17.7927 5.13987 17.8883 5.34427 17.9349 5.56211C17.9816 5.77996 17.9781 6.00556 17.9247 6.22185C17.8629 6.47639 17.7335 6.7095 17.5501 6.89655C17.3668 7.08361 17.1363 7.21765 16.8831 7.28452C16.5245 7.38026 16.143 7.33695 15.815 7.16327C15.487 6.98958 15.2368 6.69836 15.1144 6.34796C15.0693 6.20783 14.9808 6.08568 14.8617 5.99916C14.7426 5.91264 14.599 5.86624 14.4518 5.86667C14.3301 5.8671 14.2102 5.89703 14.1025 5.9539C13.9949 6.01076 13.9026 6.09287 13.8336 6.1932C13.7646 6.29352 13.7209 6.40908 13.7063 6.52996C13.6917 6.65085 13.7067 6.77347 13.7498 6.88733C13.8238 7.07862 13.9178 7.26156 14.0302 7.4331L0.348407 15.8759L0.349507 15.8777C0.242908 15.9429 0.154807 16.0343 0.0936177 16.1433C0.0324287 16.2522 0.000196479 16.375 0 16.5V32.2667C9.72373e-06 32.4612 0.0772746 32.6477 0.214799 32.7852C0.352324 32.9227 0.538844 33 0.733333 33H32.2667C32.4612 33 32.6477 32.9227 32.7852 32.7852C32.9227 32.6477 33 32.4612 33 32.2667V16.5C32.9998 16.3752 32.9677 16.2525 32.9066 16.1436C32.8455 16.0347 32.7576 15.9433 32.6511 15.8781ZM17.8604 8.45753L29.6855 15.7667H3.31809L15.1512 8.46469C15.5686 8.68612 16.0342 8.8013 16.5067 8.80005C16.9792 8.7988 17.4441 8.68116 17.8604 8.45753V8.45753ZM31.5333 31.5333H1.46667V17.2333H31.5333V31.5333Z" fill="#272727"/>
<path d="M5.97155 19.25H4.50488V29.5167H5.97155V19.25Z" fill="#272727"/>
<path d="M10.4762 19.25H9.00952V29.5167H10.4762V19.25Z" fill="#272727"/>
<path d="M14.9811 19.25H13.5144V29.5167H14.9811V19.25Z" fill="#272727"/>
<path d="M19.4856 19.25H18.0189V29.5167H19.4856V19.25Z" fill="#272727"/>
<path d="M23.9905 19.25H22.5238V29.5167H23.9905V19.25Z" fill="#272727"/>
<path d="M28.4951 19.25H27.0284V29.5167H28.4951V19.25Z" fill="#272727"/>
</svg>
