<svg width="30" height="30" viewBox="0 0 30 30" fill="none" xmlns="http://www.w3.org/2000/svg">
<path d="M15.4998 17.2322C15.4998 18.4431 16.4127 19.4444 17.5923 19.6039C17.6442 19.6185 17.6979 19.6286 17.7543 19.6286H17.9208H18.3291V22.0473H17.7543C17.4231 22.0473 17.1543 22.3134 17.1543 22.6414C17.1543 22.9693 17.4231 23.2354 17.7543 23.2354H18.3291V23.8859C18.3291 24.2138 18.5979 24.48 18.9291 24.48C19.2603 24.48 19.5291 24.2138 19.5291 23.8859V23.2354H19.9377C21.273 23.2354 22.3596 22.1599 22.3596 20.8381C22.3596 19.6277 21.4476 18.6267 20.2689 18.466C20.2164 18.4512 20.1627 18.4408 20.1054 18.4408H19.9374H19.5288V16.023H20.1054C20.4366 16.023 20.7054 15.7568 20.7054 15.4289C20.7054 15.101 20.4366 14.8348 20.1054 14.8348H19.5288V14.1846C19.5288 13.8567 19.26 13.5906 18.9288 13.5906C18.5976 13.5906 18.3288 13.8567 18.3288 14.1846V14.8348H17.9205C16.5858 14.8345 15.4998 15.9101 15.4998 17.2322ZM19.9377 19.6286C20.6115 19.6286 21.1596 20.171 21.1596 20.8378C21.1596 21.5046 20.6115 22.047 19.9377 22.047H19.5291V19.6283H19.9377V19.6286ZM18.3291 18.4405H17.9208C17.2476 18.4405 16.7001 17.8984 16.7001 17.2322C16.7001 16.5653 17.2476 16.023 17.9208 16.023H18.3291V18.4405Z" fill="#272727"/>
<path d="M6.09988 4.67823H17.1C17.4312 4.67823 17.7 4.41209 17.7 4.08417C17.7 3.75625 17.4312 3.49011 17.1 3.49011H6.09988C5.76868 3.49011 5.49988 3.75625 5.49988 4.08417C5.49988 4.41209 5.76868 4.67823 6.09988 4.67823Z" fill="#272727"/>
<path d="M6.09988 7.64857H14.1C14.4312 7.64857 14.7 7.38243 14.7 7.05451C14.7 6.72659 14.4312 6.46045 14.1 6.46045H6.09988C5.76868 6.46045 5.49988 6.72659 5.49988 7.05451C5.49988 7.38243 5.76868 7.64857 6.09988 7.64857Z" fill="#272727"/>
<path d="M11.6001 10.6188C11.9313 10.6188 12.2001 10.3526 12.2001 10.0247C12.2001 9.6968 11.9313 9.43066 11.6001 9.43066H6.09988C5.76868 9.43066 5.49988 9.6968 5.49988 10.0247C5.49988 10.3526 5.76868 10.6188 6.09988 10.6188H11.6001Z" fill="#272727"/>
<path d="M26.4999 3.04461H24.5001V0.965397C24.5001 0.637477 24.2313 0.371338 23.9001 0.371338H3.50009C3.16889 0.371338 2.90009 0.637477 2.90009 0.965397V26.0644C2.90009 26.3923 3.16889 26.6585 3.50009 26.6585H5.49989V28.7377C5.49989 29.0656 5.76869 29.3317 6.09989 29.3317H26.4999C26.8311 29.3317 27.0999 29.0656 27.0999 28.7377V3.63866C27.0999 3.31074 26.8314 3.04461 26.4999 3.04461ZM4.10009 1.55946H23.3001V25.4703H4.10009V1.55946ZM25.8999 28.1436H6.69989V26.6585H23.9001C24.2313 26.6585 24.5001 26.3923 24.5001 26.0644V4.23272H25.8999V28.1436Z" fill="#272727"/>
</svg>
