<svg width="32" height="30" viewBox="0 0 32 30" fill="none" xmlns="http://www.w3.org/2000/svg">
<g clip-path="url(#clip0)">
<path d="M29.625 0.166016C28.281 0.166016 27.1875 1.25952 27.1875 2.60352V26.4959C27.1875 26.6721 27.237 26.8443 27.33 26.9928L28.83 29.3924C29.0025 29.6684 29.2999 29.8334 29.625 29.8334C29.9501 29.8334 30.2475 29.6688 30.42 29.3928L31.9192 26.9939C32.013 26.8446 32.0625 26.6725 32.0625 26.4963V2.60352C32.0625 1.25952 30.969 0.166016 29.625 0.166016ZM28.3125 5.04102H30.9375V24.916H28.3125V5.04102ZM29.625 1.29102C30.3487 1.29102 30.9375 1.87977 30.9375 2.60352V3.91602H28.3125V2.60352C28.3125 1.88014 28.9013 1.29102 29.625 1.29102ZM29.625 28.5419L28.3125 26.4419V26.041H30.9375V26.4419L29.625 28.5419Z" fill="#272727"/>
<path d="M10.875 5.79102H7.5C7.1895 5.79102 6.9375 5.53939 6.9375 5.22852C6.9375 4.91764 7.1895 4.66602 7.5 4.66602H10.875C11.1855 4.66602 11.4375 4.91764 11.4375 5.22852C11.4375 5.53939 11.1855 5.79102 10.875 5.79102Z" fill="#272727"/>
<path d="M19.875 5.79102H13.5C13.1895 5.79102 12.9375 5.53939 12.9375 5.22852C12.9375 4.91764 13.1895 4.66602 13.5 4.66602H19.875C20.1855 4.66602 20.4375 4.91764 20.4375 5.22852C20.4375 5.53939 20.1855 5.79102 19.875 5.79102Z" fill="#272727"/>
<path d="M10.875 8.79102H7.5C7.1895 8.79102 6.9375 8.53939 6.9375 8.22852C6.9375 7.91764 7.1895 7.66602 7.5 7.66602H10.875C11.1855 7.66602 11.4375 7.91764 11.4375 8.22852C11.4375 8.53939 11.1855 8.79102 10.875 8.79102Z" fill="#272727"/>
<path d="M19.875 8.79102H13.5C13.1895 8.79102 12.9375 8.53939 12.9375 8.22852C12.9375 7.91764 13.1895 7.66602 13.5 7.66602H19.875C20.1855 7.66602 20.4375 7.91764 20.4375 8.22852C20.4375 8.53939 20.1855 8.79102 19.875 8.79102Z" fill="#272727"/>
<path d="M10.875 14.791H7.5C7.1895 14.791 6.9375 14.5394 6.9375 14.2285C6.9375 13.9176 7.1895 13.666 7.5 13.666H10.875C11.1855 13.666 11.4375 13.9176 11.4375 14.2285C11.4375 14.5394 11.1855 14.791 10.875 14.791Z" fill="#272727"/>
<path d="M19.875 14.791H13.5C13.1895 14.791 12.9375 14.5394 12.9375 14.2285C12.9375 13.9176 13.1895 13.666 13.5 13.666H19.875C20.1855 13.666 20.4375 13.9176 20.4375 14.2285C20.4375 14.5394 20.1855 14.791 19.875 14.791Z" fill="#272727"/>
<path d="M10.875 17.791H7.5C7.1895 17.791 6.9375 17.5394 6.9375 17.2285C6.9375 16.9176 7.1895 16.666 7.5 16.666H10.875C11.1855 16.666 11.4375 16.9176 11.4375 17.2285C11.4375 17.5394 11.1855 17.791 10.875 17.791Z" fill="#272727"/>
<path d="M19.875 17.791H13.5C13.1895 17.791 12.9375 17.5394 12.9375 17.2285C12.9375 16.9176 13.1895 16.666 13.5 16.666H19.875C20.1855 16.666 20.4375 16.9176 20.4375 17.2285C20.4375 17.5394 20.1855 17.791 19.875 17.791Z" fill="#272727"/>
<path d="M22.875 0.166016H4.5C4.1895 0.166016 3.9375 0.417641 3.9375 0.728516V3.91602H0.75C0.4395 3.91602 0.1875 4.16764 0.1875 4.47852V29.2285C0.1875 29.5394 0.4395 29.791 0.75 29.791H19.125C19.4355 29.791 19.6875 29.5394 19.6875 29.2285V26.041H22.875C23.1855 26.041 23.4375 25.7894 23.4375 25.4785V0.728516C23.4375 0.418016 23.1855 0.166016 22.875 0.166016ZM18.5625 28.666H1.3125V5.04102H3.9375V25.4785C3.9375 25.7894 4.1895 26.041 4.5 26.041H18.5625V28.666ZM22.3125 24.916C18.4684 24.916 8.37375 24.916 5.0625 24.916C5.0625 21.9591 5.0625 3.55714 5.0625 1.29102H22.3125V24.916Z" fill="#272727"/>
</g>
<defs>
<clipPath id="clip0">
<rect width="31.875" height="30" fill="white"/>
</clipPath>
</defs>
</svg>
