<svg width="30" height="30" viewBox="0 0 30 30" fill="none" xmlns="http://www.w3.org/2000/svg">
<g clip-path="url(#clip0)">
<path d="M19.5623 17.5964C19.9101 18.0895 20.4253 18.3827 21.0916 18.4784V19.2206C21.0916 19.4787 21.3011 19.6877 21.5604 19.6877C21.8191 19.6877 22.0291 19.4784 22.0291 19.2206V18.4852C22.4142 18.4324 22.7866 18.3091 23.1154 18.1008C23.5146 17.8479 23.8286 17.4373 23.8872 16.9685C24.0007 16.062 23.4694 15.296 22.5895 15.0413C22.4036 14.9876 22.2169 14.9325 22.0291 14.88V13.1395C22.1958 13.1878 22.3528 13.2563 22.4838 13.3479C22.7095 13.5059 22.8593 13.752 22.9589 14.0006C23.0353 14.1902 23.1783 14.3967 23.3929 14.4473C23.6135 14.4996 23.8603 14.3639 23.8952 14.1321C23.9393 13.8356 23.8289 13.504 23.5575 13.1187C23.389 12.8803 23.1848 12.6888 22.9509 12.5491C22.6704 12.382 22.3544 12.2808 22.0294 12.2297V11.2486C22.0294 10.9903 21.8194 10.7812 21.5606 10.7812C21.3014 10.7812 21.0919 10.9905 21.0919 11.2486V12.2138C21.0098 12.2257 20.9285 12.2421 20.8497 12.2634C20.186 12.4448 19.5644 12.859 19.4114 13.5544C19.3047 14.0395 19.3591 14.5988 19.714 14.9773C20.0723 15.3598 20.5924 15.5077 21.0919 15.6354V17.5744C20.7984 17.4832 20.5401 17.3304 20.3859 17.1255C20.2265 16.9137 20.167 16.6465 19.9964 16.4409C19.8105 16.2166 19.4168 16.1782 19.2731 16.4585C19.1636 16.672 19.2314 16.9807 19.3268 17.1881C19.391 17.3288 19.473 17.4691 19.5623 17.5964ZM22.0291 15.8548C22.1198 15.8796 22.2094 15.9068 22.297 15.9387C22.8675 16.1475 23.1279 16.7843 22.7269 17.273C22.5626 17.4731 22.3108 17.5915 22.0291 17.6412V15.8548ZM20.3986 14.2085C20.1138 13.7393 20.579 13.2502 21.0147 13.1224C21.0396 13.1152 21.0661 13.1109 21.0916 13.1051V14.6536C20.8092 14.5763 20.5519 14.46 20.3986 14.2085Z" fill="#272727"/>
<path d="M14.5463 17.1206C14.7631 20.3086 17.8824 21.8688 20.7242 22.0186C21.0289 22.0348 22.5448 22.0357 22.8659 22.0186C25.7082 21.8686 28.827 20.3084 29.0436 17.1206C29.2255 14.4584 27.9247 12.3096 26.3501 10.2919C25.5099 9.21492 24.4287 8.15203 23.6501 7.03125H19.9397C19.1614 8.15203 18.08 9.21492 17.2397 10.2919C15.6659 12.3096 14.3644 14.4581 14.5463 17.1206ZM20.4092 7.95539H23.1807C23.5983 8.50781 25.2891 10.4327 25.6233 10.8612C27.0195 12.6502 28.2884 14.6388 28.1232 17.0576C27.946 19.6627 25.3311 20.9625 22.8172 21.0954C22.4977 21.1123 21.0868 21.112 20.7966 21.0966L20.7727 21.0954C18.2593 20.9627 15.6439 19.6629 15.4665 17.0571C15.3012 14.6395 16.5708 12.6504 17.9668 10.8607C18.301 10.433 19.9918 8.50805 20.4092 7.95539Z" fill="#272727"/>
<path d="M19.6854 5.15625C19.4267 5.15625 19.2167 5.36625 19.2167 5.625C19.2167 5.88375 19.4267 6.09375 19.6854 6.09375H23.9042C24.1629 6.09375 24.3729 5.88375 24.3729 5.625C24.3729 5.36625 24.1629 5.15625 23.9042 5.15625H19.6854Z" fill="#272727"/>
<path d="M23.8968 0C23.3013 0 23.0313 0.679219 22.5285 0.887812C22.3802 0.949453 22.2126 0.961406 22.0577 0.920625C21.7844 0.848203 21.7033 0.477422 21.4694 0.350391C21.1356 0.169453 20.8992 0.620156 20.7025 0.808125C20.4963 1.005 20.2277 1.11516 19.9518 0.996797C19.6776 0.879844 19.4547 0.643125 19.1674 0.559922C18.9581 0.499219 18.7579 0.675 18.7483 0.877266C18.7363 1.12219 18.9449 1.33008 19.0745 1.51664C19.0745 1.51664 19.6291 2.24367 19.9431 4.21875H22.9874C23.1119 3.30094 23.3641 2.3932 23.774 1.59187C23.9444 1.25836 24.494 0.668437 24.3484 0.239531C24.2892 0.0653906 24.0712 0 23.8968 0ZM22.2002 3.28125H20.7201C20.602 2.74664 20.4693 2.31727 20.342 1.97906C20.6038 1.95258 20.943 1.84758 21.2873 1.54383C21.6529 1.86141 22.1749 1.95094 22.638 1.83117C22.4566 2.28539 22.3103 2.76984 22.2002 3.28125Z" fill="#272727"/>
<path d="M28.1109 23.017C28.0608 23.025 23.0611 23.9641 20.0855 24.5231C19.8309 24.5709 19.6634 24.8159 19.7112 25.0706C19.759 25.3249 20.003 25.4927 20.2584 25.4449C22.9755 24.9342 28.1454 23.9634 28.2553 23.9438C28.5251 23.902 28.9573 23.9407 29.0353 24.2194C29.2671 25.0451 27.5201 25.7491 26.6803 26.0881C26.553 26.1394 21.8313 28.0139 20.3548 28.4838C18.1849 29.1741 16.4541 29.2505 14.9091 28.7234C13.9559 28.3981 9.83109 26.1928 8.57555 25.8607C7.82203 25.661 7.12242 25.6964 6.55242 25.9617C6.54164 25.9666 5.62453 26.4813 5.62453 26.4813V21.6919L8.47195 20.8423C8.49586 20.8345 10.8408 20.1124 13.0671 21.3452C13.0671 21.3452 15.7488 22.8448 15.8674 22.9073C16.4196 23.1996 17.7136 23.8845 17.8723 24.5217C17.8948 24.6122 17.9053 24.7388 17.7879 24.9122C17.5969 25.0964 16.7224 25.0901 13.6345 24.0162C13.208 23.8678 12.9 23.7605 12.709 23.7129C12.4573 23.6503 12.2034 23.8036 12.1409 24.0551C12.0785 24.3063 12.2316 24.5606 12.4828 24.6232C12.6326 24.6602 12.9544 24.7723 13.3268 24.9016C15.806 25.7639 17.9107 26.4002 18.5606 25.4428C18.8032 25.0854 18.8798 24.6881 18.7821 24.2953C18.5224 23.2516 17.0803 22.4885 16.3057 22.0786C16.1986 22.0221 13.5211 20.5252 13.5211 20.5252C10.9453 19.099 8.30016 19.9134 8.19633 19.946L5.6243 20.7134V20.6058C5.6243 19.5809 4.785 18.75 3.74953 18.75H0V29.7464H3.74953C4.785 29.7464 5.6243 28.9156 5.6243 27.8906V27.5564L6.96258 26.805C7.42547 26.5962 7.96383 26.6688 8.33555 26.7673C9.48516 27.0713 13.5809 29.2608 14.6062 29.6107C15.3668 29.8699 16.1761 30 17.0447 30C18.142 30 19.3336 29.7926 20.6388 29.3773C22.1381 28.9001 26.91 27.0061 27.0307 26.9576C28.207 26.4834 30.3966 25.6003 29.9374 23.9658C29.7101 23.1551 28.8314 22.9059 28.1109 23.017ZM4.6875 27.912C4.6875 28.4182 4.2668 28.83 3.75 28.83H0.9375V19.6873H3.75C4.2668 19.6873 4.6875 20.0991 4.6875 20.6053V27.912Z" fill="#272727"/>
</g>
<defs>
<clipPath id="clip0">
<rect width="30" height="30" fill="white"/>
</clipPath>
</defs>
</svg>
