<svg width="35" height="35" viewBox="0 0 35 35" fill="none" xmlns="http://www.w3.org/2000/svg">
<rect width="35" height="35" rx="17.5" transform="matrix(-1 0 0 1 35 0)" fill="#22ADE9"/>
<g clip-path="url(#clip0)">
<path fill-rule="evenodd" clip-rule="evenodd" d="M21.5621 23.0714C21.5621 23.0714 21.2527 23.8624 20.4029 23.4823L15.3034 19.4804L13.4491 18.5634L10.3278 17.4868C10.3278 17.4868 9.84898 17.3132 9.80278 16.9338C9.75588 16.5537 10.3432 16.3479 10.3432 16.3479L22.7521 11.3667C22.7521 11.3667 23.772 10.9082 23.772 11.6677L21.5621 23.0707V23.0714Z" fill="#FFFFFE"/>
<path fill-rule="evenodd" clip-rule="evenodd" d="M14.9121 22.9427C14.9121 22.9427 14.763 22.9287 14.5775 22.3267C14.392 21.7261 13.4491 18.5628 13.4491 18.5628L20.944 13.6908C20.944 13.6908 21.3766 13.422 21.3612 13.6908C21.3612 13.6908 21.4382 13.7384 21.2072 13.9603C20.9748 14.1815 15.3195 19.3853 15.3195 19.3853" fill="#E6E6E6"/>
<path fill-rule="evenodd" clip-rule="evenodd" d="M17.2591 21.0143L15.2417 22.8973C15.2417 22.8973 15.0842 23.0191 14.912 22.9428L15.2977 19.4463" fill="#CDCDCD"/>
</g>
<defs>
<clipPath id="clip0">
<rect x="9.79999" y="11.2002" width="14" height="12.6" fill="white"/>
</clipPath>
</defs>
</svg>
