<svg width="37" height="33" viewBox="0 0 37 33" fill="none" xmlns="http://www.w3.org/2000/svg">
<path d="M27.9974 22.2899C28.6226 22.2899 29.2222 22.0415 29.6643 21.5994C30.1064 21.1573 30.3547 20.5577 30.3547 19.9325V18.9443C30.352 18.5854 30.2674 18.2319 30.1074 17.9107C29.9474 17.5895 29.7161 17.3091 29.4313 17.0908C29.1464 16.8725 28.8155 16.7222 28.4637 16.6512C28.112 16.5802 27.7486 16.5905 27.4014 16.6812L23.6296 17.6694C23.0771 17.8164 22.5968 18.1591 22.2781 18.6339C21.9595 19.1087 21.8243 19.683 21.8976 20.2501C21.971 20.8171 22.2479 21.3381 22.6769 21.7162C23.1058 22.0942 23.6576 22.3035 24.2293 22.305L27.9974 22.2899ZM23.3769 19.9325C23.3775 19.7453 23.4399 19.5635 23.5545 19.4155C23.6691 19.2674 23.8295 19.1614 24.0106 19.114L27.7824 18.1258C27.8537 18.1063 27.9272 18.0962 28.0011 18.0956C28.2255 18.0966 28.4404 18.1865 28.5988 18.3455C28.7571 18.5046 28.846 18.7199 28.846 18.9443V19.9325C28.846 20.1576 28.7566 20.3734 28.5974 20.5326C28.4383 20.6917 28.2224 20.7812 27.9974 20.7812H24.2256C24.0005 20.7812 23.7846 20.6917 23.6255 20.5326C23.4663 20.3734 23.3769 20.1576 23.3769 19.9325ZM36.9969 11.5176C36.9969 11.9589 36.9969 12.4379 36.9969 13.0263C36.9834 13.7095 36.7263 14.3654 36.2719 14.8758C35.8176 15.3862 35.1958 15.7174 34.5188 15.8099C35.296 17.2523 35.6858 18.8715 35.6503 20.5096V30.3351C35.6493 31.0811 35.3526 31.7962 34.8251 32.3237C34.2976 32.8511 33.5825 33.1479 32.8366 33.1489H30.1548C29.4089 33.1479 28.6938 32.8511 28.1663 32.3237C27.6388 31.7962 27.3421 31.0811 27.3411 30.3351V29.543H15.3128C15.1127 29.543 14.9209 29.4636 14.7794 29.3221C14.6379 29.1806 14.5584 28.9888 14.5584 28.7887C14.5584 28.5886 14.6379 28.3967 14.7794 28.2553C14.9209 28.1138 15.1127 28.0343 15.3128 28.0343H28.0954C28.2955 28.0343 28.4874 28.1138 28.6288 28.2553C28.7703 28.3967 28.8498 28.5886 28.8498 28.7887V30.3351C28.8498 30.6812 28.9873 31.0132 29.232 31.2579C29.4768 31.5027 29.8087 31.6402 30.1548 31.6402H32.8177C33.1638 31.6402 33.4958 31.5027 33.7405 31.2579C33.9853 31.0132 34.1228 30.6812 34.1228 30.3351V20.4907C34.1718 18.8713 33.72 17.2762 32.829 15.9231C32.7423 15.7948 32.648 15.6628 32.5537 15.5459C32.4696 15.4338 32.4184 15.3006 32.4059 15.161C32.3933 15.0215 32.4198 14.8812 32.4825 14.7559C32.5451 14.6306 32.6414 14.5252 32.7606 14.4516C32.8798 14.3779 33.0171 14.3389 33.1572 14.3389H33.2779H34.1529C34.5082 14.332 34.8466 14.1866 35.0961 13.9336C35.3456 13.6806 35.4862 13.3401 35.4881 12.9848C35.4881 12.4266 35.4881 11.9778 35.4881 11.5666C35.4882 11.2275 35.3542 10.902 35.1154 10.6612C34.8767 10.4203 34.5524 10.2835 34.2133 10.2805C33.9681 10.2805 33.7229 10.2805 33.4589 10.2805C32.7835 10.319 32.1476 10.6113 31.6786 11.0989C31.5892 11.1826 31.4808 11.2432 31.3627 11.2756C31.2446 11.3079 31.1205 11.311 31.0009 11.2847C30.8813 11.2583 30.77 11.2033 30.6765 11.1242C30.5829 11.0452 30.5101 10.9446 30.4641 10.8311C29.2911 7.91555 28.1746 5.55063 27.5523 4.65671C26.3415 2.9066 24.5499 2.42381 23.2826 2.1975C21.4116 1.89997 19.5194 1.75616 17.6249 1.76751C17.4248 1.76751 17.233 1.68804 17.0915 1.54657C16.95 1.4051 16.8705 1.21322 16.8705 1.01316C16.8705 0.813086 16.95 0.621212 17.0915 0.479742C17.233 0.338272 17.4248 0.258795 17.6249 0.258795C19.5978 0.248471 21.5683 0.399849 23.5165 0.711411C25.0252 0.975437 27.2317 1.5827 28.7668 3.79297C29.5928 4.98109 30.7545 7.64398 31.4636 9.35637C32.0537 8.9867 32.7326 8.78339 33.4287 8.76797C33.7003 8.76797 33.9643 8.76797 34.2246 8.76797C34.9556 8.76893 35.6568 9.05822 36.1758 9.57303C36.6949 10.0878 36.9899 10.7866 36.9969 11.5176ZM4.41984 16.9264V30.056C4.42132 30.4783 4.50604 30.8962 4.66914 31.2858C4.83225 31.6754 5.07054 32.029 5.3704 32.3264C5.67026 32.6238 6.0258 32.8592 6.4167 33.0191C6.80759 33.179 7.22617 33.2603 7.6485 33.2583H9.66264C10.5103 33.2553 11.3223 32.9167 11.921 32.3166C12.5197 31.7165 12.8564 30.9037 12.8574 30.056V16.9264C12.8588 16.36 12.9829 15.8007 13.2212 15.287C13.4595 14.7733 13.8064 14.3173 14.2378 13.9504C15.192 13.1341 15.9556 12.1185 16.4749 10.9753C16.9942 9.83201 17.2566 8.5888 17.2437 7.33318C17.2308 6.07755 16.9428 4.84002 16.4 3.7077C15.8572 2.57538 15.0728 1.5758 14.102 0.779303C13.8251 0.539952 13.4723 0.406338 13.1063 0.402123C12.6791 0.402123 12.2695 0.571807 11.9675 0.873845C11.6654 1.17588 11.4957 1.58554 11.4957 2.01268V5.62229C11.4957 6.02243 11.3368 6.40618 11.0538 6.68912C10.7709 6.97206 10.3872 7.13101 9.98701 7.13101H7.27132C6.87118 7.13101 6.48743 6.97206 6.20449 6.68912C5.92155 6.40618 5.7626 6.02243 5.7626 5.62229V2.02777C5.76267 1.6058 5.59714 1.20065 5.3016 0.899469C5.00605 0.598284 4.60411 0.425116 4.18222 0.417211C3.81617 0.421425 3.46343 0.555039 3.18646 0.794391C2.21831 1.59094 1.43621 2.58971 0.895043 3.72061C0.353871 4.8515 0.0667414 6.08713 0.0538024 7.34078C0.0408634 8.59442 0.302429 9.83571 0.820143 10.9775C1.33786 12.1194 2.09918 13.1341 3.05068 13.9504C3.48027 14.3182 3.82511 14.7746 4.06147 15.2883C4.29782 15.802 4.42008 16.3609 4.41984 16.9264ZM1.54196 7.42144C1.54062 6.37299 1.77242 5.33735 2.22058 4.38951C2.66874 3.44166 3.32203 2.60532 4.13318 1.94102C4.14538 1.9367 4.1587 1.9367 4.1709 1.94102C4.19761 1.94196 4.22297 1.95299 4.24187 1.97189C4.26077 1.99078 4.2718 2.01615 4.27274 2.04286V5.65247C4.27274 6.45274 4.59065 7.22024 5.15653 7.78612C5.72241 8.352 6.4899 8.66991 7.29018 8.66991H10.0323C10.4285 8.66991 10.8209 8.59186 11.187 8.44022C11.5531 8.28858 11.8857 8.06631 12.1659 7.78612C12.4461 7.50592 12.6684 7.17328 12.82 6.80719C12.9717 6.4411 13.0497 6.04872 13.0497 5.65247V2.02777C13.0507 2.00106 13.0617 1.9757 13.0806 1.9568C13.0995 1.9379 13.1248 1.92687 13.1516 1.92593C13.1638 1.92162 13.1771 1.92162 13.1893 1.92593C13.9902 2.58274 14.6373 3.40719 15.085 4.34121C15.5327 5.27522 15.7702 6.29605 15.7806 7.33178C15.791 8.3675 15.5742 9.39292 15.1454 10.3358C14.7165 11.2786 14.0862 12.1159 13.2987 12.7887C12.6919 13.2947 12.203 13.9272 11.8661 14.6419C11.5293 15.3566 11.3527 16.1363 11.3486 16.9264V30.056C11.3476 30.5049 11.1689 30.935 10.8515 31.2524C10.5341 31.5698 10.1039 31.7486 9.6551 31.7495H7.6221C7.17325 31.7486 6.74307 31.5698 6.42569 31.2524C6.1083 30.935 5.92955 30.5049 5.92856 30.056V16.9264C5.92734 16.143 5.75645 15.3692 5.42763 14.6582C5.09882 13.9472 4.6199 13.3158 4.0238 12.8076C3.24545 12.1425 2.62053 11.3166 2.19208 10.3867C1.76362 9.4569 1.54182 8.44524 1.54196 7.42144ZM7.88989 28.8641V16.7038C7.88989 16.5038 7.96937 16.3119 8.11084 16.1704C8.25231 16.029 8.44419 15.9495 8.64425 15.9495C8.84432 15.9495 9.0362 16.029 9.17767 16.1704C9.31914 16.3119 9.39861 16.5038 9.39861 16.7038V28.8641C9.39861 29.0642 9.31914 29.2561 9.17767 29.3975C9.0362 29.539 8.84432 29.6185 8.64425 29.6185C8.44419 29.6185 8.25231 29.539 8.11084 29.3975C7.96937 29.2561 7.88989 29.0642 7.88989 28.8641Z" fill="#272727"/>
</svg>
