<svg width="31" height="33" viewBox="0 0 31 33" fill="none" xmlns="http://www.w3.org/2000/svg">
<path d="M14.9594 2.16373C14.4527 2.17699 13.9713 2.38725 13.6181 2.74965C13.2649 3.11206 13.0679 3.5978 13.0691 4.1031C13.0639 4.36052 13.1102 4.61641 13.2053 4.85576C13.3005 5.0951 13.4426 5.31309 13.6234 5.49699C13.8041 5.68089 14.0199 5.82699 14.258 5.92673C14.496 6.02647 14.7517 6.07791 15.01 6.07791C15.2682 6.07791 15.5239 6.02647 15.762 5.92673C16.0001 5.82699 16.2158 5.68089 16.3966 5.49699C16.5773 5.31309 16.7194 5.0951 16.8146 4.85576C16.9098 4.61641 16.9561 4.36052 16.9508 4.1031C16.9515 3.84435 16.9 3.58811 16.7996 3.34951C16.6992 3.1109 16.5518 2.89478 16.3661 2.71396C16.1805 2.53313 15.9603 2.39131 15.7187 2.29679C15.4771 2.20227 15.2189 2.15705 14.9594 2.16373ZM14.9869 3.34058C15.0893 3.33757 15.1912 3.35514 15.2866 3.3921C15.3821 3.42906 15.4691 3.48476 15.5426 3.55586C15.616 3.62696 15.6744 3.71201 15.7143 3.80602C15.7542 3.90003 15.7748 4.00103 15.7748 4.1031C15.7781 4.20534 15.7608 4.30718 15.7239 4.40262C15.687 4.49806 15.6312 4.58523 15.5598 4.65874C15.4885 4.73225 15.403 4.79069 15.3086 4.83061C15.2141 4.87053 15.1125 4.89105 15.0099 4.89105C14.9073 4.89105 14.8057 4.87053 14.7113 4.83061C14.6168 4.79069 14.5313 4.73225 14.46 4.65874C14.3886 4.58523 14.3328 4.49806 14.2959 4.40262C14.259 4.30718 14.2417 4.20534 14.2451 4.1031C14.2451 3.90482 14.3225 3.71428 14.461 3.57195C14.5995 3.42962 14.7881 3.34664 14.9869 3.34058Z" fill="#272727"/>
<path d="M11.2385 6.1055e-07C10.6543 -0.00039976 10.0872 0.196119 9.6293 0.557797C9.17142 0.919475 8.84974 1.42506 8.71656 1.99211L7.42802 7.4669C7.37624 7.6871 7.38945 7.91756 7.46607 8.13044C7.54269 8.34332 7.67943 8.52958 7.85983 8.66673L8.34675 9.03752C7.56295 10.2344 7.11809 11.6202 7.05921 13.0484C7.00032 14.4765 7.32959 15.8941 8.01221 17.1511C8.69483 18.408 9.70544 19.4578 10.9372 20.1894C12.169 20.921 13.5761 21.3071 15.0099 21.3071C16.4437 21.3071 17.8509 20.921 19.0826 20.1894C20.3144 19.4578 21.325 18.408 22.0076 17.1511C22.6902 15.8941 23.0195 14.4765 22.9606 13.0484C22.9017 11.6202 22.4569 10.2344 21.6731 9.03752L22.16 8.66673C22.3404 8.52958 22.4771 8.34332 22.5538 8.13044C22.6304 7.91756 22.6436 7.6871 22.5918 7.4669L21.3033 1.99211C21.1702 1.42544 20.8488 0.920245 20.3914 0.558608C19.934 0.196972 19.3674 0.000116072 18.7836 6.1055e-07H11.2385ZM11.2385 1.17225H18.7836C19.102 1.17265 19.411 1.28029 19.6603 1.47772C19.9096 1.67515 20.0847 1.95089 20.1572 2.25999L21.2826 7.03418H8.73723L9.86268 2.25999C9.93522 1.95051 10.1107 1.67452 10.3604 1.47705C10.6102 1.27957 10.9197 1.17213 11.2385 1.17225ZM9.1943 8.20657H20.8255L16.6499 11.3778C16.1785 11.7357 15.6024 11.9295 15.0099 11.9295C14.4174 11.9295 13.8413 11.7357 13.37 11.3778L9.1943 8.20657ZM9.28391 9.74987L12.658 12.3098C13.3342 12.8235 14.1609 13.1018 15.0111 13.1018C15.8613 13.1018 16.688 12.8235 17.3642 12.3098L20.736 9.74987C21.3866 10.7722 21.75 11.9498 21.7881 13.1599C21.8261 14.37 21.5375 15.5682 20.9524 16.6291C20.3673 17.69 19.5072 18.5748 18.4619 19.191C17.4165 19.8073 16.2244 20.1325 15.01 20.1325C13.7955 20.1325 12.6034 19.8073 11.558 19.191C10.5127 18.5748 9.65256 17.69 9.06746 16.6291C8.48236 15.5682 8.19377 14.37 8.23185 13.1599C8.26992 11.9498 8.63326 10.7722 9.28391 9.74987Z" fill="#272727"/>
<path d="M20.8903 21.103V22.2753H24.4182V21.103H20.8903Z" fill="#272727"/>
<path d="M9.1305 21.103V22.2753H5.60254V21.103H9.1305Z" fill="#272727"/>
<path d="M7.8713 23.4473C7.12984 23.4472 6.39664 23.6025 5.71924 23.9031C5.04184 24.2037 4.43535 24.6428 3.9391 25.1921C1.98488 27.3537 0.627511 29.9843 0 32.8262H1.20814C1.8147 30.2783 3.05391 27.9232 4.81189 25.9774C5.3837 25.3441 6.1391 24.904 6.97324 24.7181L10.0143 27.9695L12.7613 25.0936L13.4572 26.7995L11.1122 32.8262H12.3731L14.7228 26.7881L13.8362 24.6197H16.1836L15.2993 26.7881L17.6467 32.8262H18.9077L16.5649 26.7995L17.2608 25.0936L20.0078 27.9695L23.0466 24.7181C23.8807 24.904 24.6361 25.3441 25.2079 25.9774C26.9667 27.9229 28.2067 30.2781 28.814 32.8262H30.0198C29.393 29.9845 28.0364 27.3539 26.083 25.1921C25.5868 24.6428 24.9803 24.2037 24.3029 23.9031C23.6255 23.6025 22.8923 23.4472 22.1508 23.4473H7.8713ZM8.48915 24.6197H11.5899L10.0235 26.2614L8.48915 24.6197ZM18.4299 24.6197H21.533L19.9987 26.2614L18.4299 24.6197Z" fill="#272727"/>
</svg>
