<svg width="35" height="35" viewBox="0 0 35 35" fill="none" xmlns="http://www.w3.org/2000/svg">
<rect width="35" height="35" rx="17.5" transform="matrix(-1 0 0 1 35 0)" fill="#A226DC"/>
<g clip-path="url(#clip0)">
<path fill-rule="evenodd" clip-rule="evenodd" d="M17.6753 11.2502C18.3996 11.3326 19.104 11.5406 19.7569 11.8647C20.4304 12.1933 20.8621 12.5043 21.4317 13.0694C21.9667 13.6036 22.2629 14.0082 22.5775 14.6359C23.0152 15.5128 23.2643 16.5539 23.307 17.7005C23.3232 18.091 23.3114 18.1787 23.2215 18.2899C23.0513 18.5073 22.6763 18.4712 22.548 18.2281C22.5075 18.147 22.4965 18.0785 22.4832 17.7653C22.47 17.3755 22.4287 16.9872 22.3594 16.6033C22.0941 15.1481 21.3941 13.9861 20.2756 13.1519C19.3435 12.4549 18.3805 12.1152 17.1183 12.0415C16.6909 12.0172 16.6172 12.001 16.5214 11.9273C16.3409 11.7873 16.332 11.4557 16.5052 11.3017C16.6106 11.2059 16.685 11.1919 17.0505 11.2037C17.242 11.2104 17.522 11.2325 17.6753 11.2502ZM12.541 11.4918C12.6198 11.5184 12.7407 11.581 12.8107 11.6259C13.2373 11.9074 14.4244 13.4202 14.8134 14.1754C15.0359 14.6072 15.1096 14.927 15.0404 15.1635C14.9681 15.4185 14.8488 15.5526 14.3175 15.9792C14.1038 16.1516 13.9041 16.3285 13.8725 16.3749C13.7914 16.4913 13.7266 16.719 13.7266 16.8804C13.7288 17.2532 13.9712 17.9304 14.2903 18.4513C14.5371 18.8558 14.9799 19.3746 15.4176 19.7725C15.9319 20.2418 16.3851 20.5609 16.8972 20.8136C17.5552 21.1401 17.9575 21.2226 18.2515 21.0863C18.3252 21.0531 18.404 21.0082 18.4284 20.9883C18.4512 20.9676 18.6244 20.7576 18.813 20.5255C19.177 20.0694 19.2595 19.9957 19.5093 19.911C19.8261 19.8034 20.1489 19.8329 20.4746 19.9979C20.8642 20.2129 21.2429 20.447 21.6093 20.6994C22.0661 21.0192 23.0461 21.815 23.1788 21.9742C23.4116 22.2601 23.4521 22.6263 23.2952 23.0308C23.1287 23.4582 22.4825 24.2576 22.0308 24.6003C21.6218 24.9083 21.3323 25.0269 20.9506 25.0446C20.6367 25.0601 20.5063 25.0335 20.1039 24.8677C16.951 23.5738 14.4339 21.6426 12.4356 18.9899C11.3915 17.6047 10.5972 16.1678 10.0534 14.6765C9.73657 13.807 9.72183 13.4297 9.98194 12.9847C10.0939 12.7968 10.5721 12.3318 10.9207 12.0725C11.4998 11.6436 11.7673 11.4852 11.9803 11.4403C12.1261 11.4093 12.3796 11.4329 12.5417 11.4918H12.541ZM17.8293 12.8705C19.1925 13.0694 20.2476 13.7002 20.9395 14.7236C21.3278 15.2998 21.5703 15.977 21.6543 16.7035C21.683 16.9695 21.683 17.4551 21.6513 17.5347C21.6071 17.6272 21.5359 17.7043 21.4472 17.7557C21.3588 17.8007 21.1731 17.7963 21.0699 17.7425C20.8968 17.6555 20.8452 17.517 20.8452 17.1419C20.8452 16.5628 20.6949 15.9527 20.434 15.4789C20.1409 14.9413 19.7081 14.4928 19.1814 14.1806C18.7297 13.9124 18.0629 13.7134 17.4543 13.6641C17.2339 13.6464 17.1131 13.6014 17.0298 13.5056C16.9676 13.4378 16.9303 13.3507 16.9242 13.2588C16.918 13.167 16.9433 13.0757 16.9959 13.0002C17.1131 12.8189 17.2929 12.7902 17.8293 12.8705ZM18.3083 14.5578C18.7504 14.6522 19.0893 14.8194 19.3789 15.0898C19.7517 15.4406 19.9558 15.8657 20.0457 16.4751C20.1061 16.873 20.0818 17.0299 19.9404 17.1596C19.8077 17.2805 19.5631 17.2849 19.415 17.1707C19.3067 17.0896 19.2735 17.0056 19.2485 16.775C19.219 16.4692 19.1652 16.2541 19.0731 16.0551C18.8756 15.6329 18.5278 15.4141 17.9391 15.3426C17.6635 15.3087 17.5803 15.2777 17.4896 15.1731C17.4514 15.1256 17.4241 15.0702 17.4097 15.011C17.3952 14.9517 17.394 14.89 17.4061 14.8302C17.4182 14.7705 17.4433 14.7141 17.4797 14.6651C17.516 14.6161 17.5627 14.5757 17.6164 14.5468C17.7011 14.5041 17.7372 14.4996 17.9258 14.5114C18.043 14.5181 18.2154 14.5379 18.3075 14.5578H18.3083Z" fill="white"/>
</g>
<defs>
<clipPath id="clip0">
<rect x="9.79999" y="11.2002" width="14" height="14" fill="white"/>
</clipPath>
</defs>
</svg>
