<svg width="36" height="36" viewBox="0 0 36 36" fill="none" xmlns="http://www.w3.org/2000/svg">
<circle cx="18" cy="18" r="18" fill="#7294C7"/>
<path d="M26.8255 22.6038C26.8255 22.529 26.7508 22.529 26.7508 22.4543C26.4519 21.8566 25.7794 21.1094 24.8828 20.2874C24.4345 19.9138 24.2103 19.6149 24.0609 19.4655C23.8367 19.1666 23.8367 18.9425 23.9114 18.6436C23.9862 18.4194 24.285 18.0458 24.8081 17.3733C25.107 16.9997 25.2564 16.7756 25.4806 16.5514C26.6014 15.057 27.1244 14.0856 26.975 13.6373L26.9003 13.5626C26.8255 13.4879 26.7508 13.4131 26.6014 13.4131C26.4519 13.3384 26.2278 13.3384 26.0036 13.4131H23.1642C23.0895 13.4131 23.0895 13.4131 22.9401 13.4131C22.8653 13.4131 22.7906 13.4131 22.7906 13.4131H22.7159H22.6412L22.5665 13.4878C22.4917 13.5626 22.4917 13.5626 22.4917 13.6373C22.1928 14.4592 21.8192 15.1317 21.4456 15.8789C21.2215 16.2525 20.9973 16.6261 20.7732 16.925C20.549 17.2239 20.3996 17.448 20.2501 17.5975C20.1007 17.7469 19.9512 17.8216 19.8765 17.9711C19.8018 18.0458 19.6524 18.1205 19.6524 18.0458C19.5776 18.0458 19.5029 18.0458 19.5029 17.9711C19.4282 17.8964 19.3535 17.8216 19.2787 17.7469C19.204 17.6722 19.204 17.5228 19.1293 17.3733C19.1293 17.2239 19.1293 17.0744 19.1293 16.9997C19.1293 16.925 19.1293 16.7008 19.1293 16.5514C19.1293 16.3272 19.1293 16.1778 19.1293 16.1031C19.1293 15.8789 19.1293 15.58 19.1293 15.2812C19.1293 14.9823 19.1293 14.7581 19.1293 14.6087C19.1293 14.4592 19.1293 14.2351 19.1293 14.0856C19.1293 13.8615 19.1293 13.712 19.1293 13.6373C19.1293 13.5626 19.0546 13.4131 19.0546 13.3384C18.9799 13.2637 18.9051 13.189 18.8304 13.1142C18.7557 13.0395 18.6063 13.0395 18.5315 12.9648C18.1579 12.8901 17.7096 12.8154 17.1866 12.8154C15.9911 12.8154 15.1691 12.8901 14.8702 13.0395C14.7208 13.1143 14.5714 13.189 14.4966 13.3384C14.3472 13.4879 14.3472 13.5626 14.4219 13.5626C14.7955 13.6373 15.0944 13.7867 15.2438 14.0109L15.3186 14.1603C15.3933 14.2351 15.3933 14.3845 15.468 14.6087C15.5427 14.8328 15.5427 15.057 15.5427 15.3559C15.5427 15.8042 15.5427 16.2525 15.5427 16.5514C15.5427 16.925 15.468 17.1492 15.468 17.3733C15.468 17.5975 15.3933 17.7469 15.3186 17.8216C15.2438 17.9711 15.2438 18.0458 15.1691 18.0458C15.1691 18.0458 15.1691 18.1205 15.0944 18.1205C15.0197 18.1205 14.945 18.1953 14.7955 18.1953C14.7208 18.1953 14.5714 18.1205 14.4966 18.0458C14.3472 17.9711 14.1978 17.8217 14.123 17.6722C13.9736 17.5228 13.8241 17.2986 13.6747 16.9997C13.5253 16.7008 13.3011 16.402 13.1516 15.9536L13.0022 15.6548C12.9275 15.5053 12.7781 15.2064 12.6286 14.8328C12.4792 14.4592 12.3297 14.1603 12.1803 13.7867C12.1056 13.6373 12.0309 13.5626 11.9561 13.4878H11.8814C11.8814 13.4878 11.8067 13.4131 11.732 13.4131C11.6572 13.4131 11.5825 13.3384 11.5078 13.3384H8.81786C8.51898 13.3384 8.36954 13.4131 8.29482 13.4878L8.22009 13.5626C8.22009 13.5626 8.22009 13.6373 8.22009 13.712C8.22009 13.7867 8.2201 13.8615 8.29482 14.0109C8.66842 14.9075 9.11674 15.8042 9.56507 16.7008C10.0134 17.5228 10.4617 18.27 10.7606 18.793C11.1342 19.3161 11.4331 19.8391 11.8067 20.2874C12.1803 20.7358 12.4044 21.0346 12.4792 21.1841C12.6286 21.3335 12.7033 21.4082 12.778 21.483L13.0022 21.7071C13.1517 21.8566 13.3758 22.0807 13.6747 22.3049C13.9736 22.529 14.3472 22.7532 14.7208 22.9774C15.0944 23.2015 15.5427 23.351 15.991 23.5004C16.5141 23.6499 16.9624 23.7246 17.4107 23.6499H18.5315C18.7557 23.6499 18.9052 23.5751 19.0546 23.4257L19.1293 23.351C19.1293 23.2763 19.204 23.2763 19.204 23.2015C19.204 23.1268 19.204 23.0521 19.204 22.9027C19.204 22.6038 19.204 22.3796 19.2787 22.1554C19.3535 21.9313 19.3535 21.7818 19.4282 21.6324C19.5029 21.483 19.5776 21.4082 19.6524 21.3335C19.7271 21.2588 19.8018 21.1841 19.8018 21.1841H19.8765C20.0259 21.1094 20.2501 21.1841 20.3996 21.3335C20.6237 21.483 20.8479 21.7071 20.9973 21.9313C21.1468 22.1554 21.3709 22.3796 21.6698 22.6785C21.9687 22.9774 22.1929 23.2015 22.3423 23.2763L22.5665 23.4257C22.7159 23.5004 22.8653 23.5751 23.0895 23.6499C23.3137 23.7246 23.4631 23.7246 23.6125 23.7246L26.1531 23.6499C26.3772 23.6499 26.6014 23.5751 26.7508 23.5004C26.9003 23.4257 26.975 23.351 26.975 23.2015C26.975 23.1268 26.975 22.9774 26.975 22.9027C26.8255 22.7532 26.8255 22.6785 26.8255 22.6038Z" fill="white"/>
</svg>
