<svg width="36" height="36" viewBox="0 0 36 36" fill="none" xmlns="http://www.w3.org/2000/svg">
<circle cx="18" cy="18" r="18" fill="#F40000"/>
<path d="M27.486 12.978C27.3791 12.5509 27.1614 12.1595 26.8548 11.8435C26.5482 11.5274 26.1637 11.2979 25.74 11.178C24.192 10.8 18 10.8 18 10.8C18 10.8 11.808 10.8 10.26 11.214C9.83632 11.3339 9.45178 11.5634 9.14521 11.8795C8.83865 12.1955 8.62091 12.5869 8.514 13.014C8.23069 14.585 8.09211 16.1787 8.1 17.775C8.0899 19.3833 8.22849 20.9892 8.514 22.572C8.63187 22.9859 8.85448 23.3623 9.16033 23.665C9.46618 23.9677 9.84494 24.1864 10.26 24.3C11.808 24.714 18 24.714 18 24.714C18 24.714 24.192 24.714 25.74 24.3C26.1637 24.1801 26.5482 23.9506 26.8548 23.6345C27.1614 23.3185 27.3791 22.9271 27.486 22.5C27.7671 20.9408 27.9057 19.3593 27.9 17.775C27.9101 16.1666 27.7715 14.5608 27.486 12.978Z" fill="white"/>
<path d="M15.3 20.0492C15.3 20.7402 16.0465 21.1734 16.6465 20.8306L20.2325 18.7814C20.8371 18.4359 20.8371 17.5641 20.2325 17.2186L16.6465 15.1695C16.0465 14.8266 15.3 15.2598 15.3 15.9509V20.0492Z" fill="#F40000"/>
</svg>
