<svg width="125" height="149" viewBox="0 0 125 149" fill="none" xmlns="http://www.w3.org/2000/svg">
<path d="M39.8429 123.806C39.9273 123.545 39.9713 123.253 39.9482 122.924C39.748 120.502 39.5494 118.079 39.349 115.658C39.8447 116.83 40.3372 118.003 40.8343 119.175C41.3262 120.334 42.4382 120.758 43.4396 120.598C43.3025 121.916 43.1485 123.234 42.9993 124.551C41.9388 124.318 40.8847 124.074 39.8429 123.806ZM42.0264 102.965C41.619 104.619 41.2654 106.28 41.0352 107.966C40.5289 106.811 40.0245 105.653 39.5186 104.494C40.3504 103.974 41.184 103.459 42.0264 102.965ZM34.5844 122.279C34.7159 121.963 34.7997 121.613 34.7563 121.193C34.5865 119.55 34.5262 117.947 34.5136 116.353C34.9749 118.355 35.291 120.411 35.4731 122.561C35.1757 122.47 34.8811 122.373 34.5844 122.279ZM26.8136 110.731C26.4989 110.34 26.1117 110.1 25.7089 109.956C25.6458 109.602 25.6023 109.249 25.5484 108.895C25.7057 108.808 25.8672 108.724 26.0218 108.635C26.1484 108.573 26.2753 108.51 26.4007 108.447C26.4498 108.439 26.4936 108.427 26.5398 108.419C26.6391 108.498 26.7508 108.56 26.8609 108.623C26.9111 109.217 26.9292 109.802 26.9959 110.398C27.1501 111.823 29.2436 111.622 29.204 110.201C29.1868 109.679 29.2063 109.158 29.1983 108.637C29.6116 108.361 29.9372 107.916 30.0627 107.253C30.2903 107.431 30.5347 107.566 30.8047 107.656C30.4001 110.045 30.1269 112.397 30.0504 114.75C28.9712 113.412 27.8941 112.071 26.8136 110.731ZM20.1269 113.236C18.7353 112.633 17.4892 113.384 16.9981 114.476C16.6241 114.282 16.25 114.089 15.8757 113.899C15.7828 113.851 15.6908 113.824 15.6004 113.788C17.4622 112.866 19.324 111.944 21.1867 111.025C21.2912 111.228 21.3784 111.433 21.486 111.636C21.7569 112.142 22.18 112.438 22.6568 112.565C22.6924 113.256 22.761 113.917 22.8537 114.557C21.9832 114.091 21.0822 113.65 20.1269 113.236ZM29.104 71.911C28.8864 72.582 28.6876 73.2596 28.5052 73.9401C26.6634 77.192 25.0773 80.5613 23.8156 84.0328C25.0515 79.909 26.8909 75.8336 29.104 71.911ZM57.8759 90.9356C52.3877 93.22 46.7281 94.9333 40.6842 95.2181C39.7875 95.69 38.8764 96.1395 37.9838 96.6229C37.9574 96.1258 37.9522 95.6311 37.9321 95.1336C35.6558 94.6327 34.1815 92.6935 34.4742 90.15C39.5577 46.0726 84.1913 23.339 124.874 20.0522C104.018 16.7091 83.4569 21.5022 66.5619 31.9155C58.1691 35.7798 50.3374 40.9371 43.4381 47.1504C28.5494 60.5598 12.8835 84.3977 18.8967 105.263C14.4527 107.229 10.0098 109.196 5.56726 111.162C4.09497 111.812 3.77726 113.311 4.19906 114.492C4.17655 114.573 4.1617 114.654 4.14664 114.737C3.71262 115.878 3.9583 117.214 5.33702 117.787C5.59747 117.894 5.85792 118.001 6.11825 118.109C18.3578 125.47 31.0733 131.73 44.3701 136.961C45.7856 137.518 47.8264 136.888 47.9987 135.115C49.4475 120.104 52.661 105.617 57.7744 91.4247C57.8323 91.2676 57.8532 91.1022 57.8759 90.9356Z" fill="#C51E1E"/>
</svg>
