<svg width="125" height="149" viewBox="0 0 125 149" fill="none" xmlns="http://www.w3.org/2000/svg">
<path d="M85.3851 123.806C85.3007 123.545 85.2567 123.253 85.2798 122.924C85.48 120.502 85.6786 118.079 85.879 115.658C85.3833 116.83 84.8908 118.003 84.3937 119.175C83.9018 120.334 82.7898 120.758 81.7884 120.598C81.9255 121.916 82.0795 123.234 82.2287 124.551C83.2892 124.318 84.3433 124.074 85.3851 123.806ZM83.2016 102.965C83.609 104.619 83.9626 106.28 84.1928 107.966C84.6991 106.811 85.2035 105.653 85.7094 104.494C84.8776 103.974 84.044 103.459 83.2016 102.965ZM90.6436 122.279C90.5121 121.963 90.4283 121.613 90.4717 121.193C90.6415 119.55 90.7018 117.947 90.7144 116.353C90.2531 118.355 89.937 120.411 89.7549 122.561C90.0523 122.47 90.3469 122.373 90.6436 122.279ZM98.4144 110.731C98.7291 110.34 99.1163 110.1 99.5191 109.956C99.5822 109.602 99.6257 109.249 99.6796 108.895C99.5223 108.808 99.3608 108.724 99.2062 108.635C99.0796 108.573 98.9527 108.51 98.8273 108.447C98.7782 108.439 98.7344 108.427 98.6882 108.419C98.5889 108.498 98.4772 108.56 98.3671 108.623C98.3169 109.217 98.2988 109.802 98.2321 110.398C98.0779 111.823 95.9844 111.622 96.024 110.201C96.0412 109.679 96.0217 109.158 96.0297 108.637C95.6164 108.361 95.2908 107.916 95.1653 107.253C94.9377 107.431 94.6933 107.566 94.4233 107.656C94.8279 110.045 95.1011 112.397 95.1776 114.75C96.2568 113.412 97.3339 112.071 98.4144 110.731ZM105.101 113.236C106.493 112.633 107.739 113.384 108.23 114.476C108.604 114.282 108.978 114.089 109.352 113.899C109.445 113.851 109.537 113.824 109.628 113.788C107.766 112.866 105.904 111.944 104.041 111.025C103.937 111.228 103.85 111.433 103.742 111.636C103.471 112.142 103.048 112.438 102.571 112.565C102.536 113.256 102.467 113.917 102.374 114.557C103.245 114.091 104.146 113.65 105.101 113.236ZM96.124 71.911C96.3416 72.582 96.5404 73.2596 96.7228 73.9401C98.5646 77.192 100.151 80.5613 101.412 84.0328C100.176 79.909 98.3371 75.8336 96.124 71.911ZM67.3521 90.9356C72.8403 93.22 78.4999 94.9333 84.5438 95.2181C85.4405 95.69 86.3516 96.1395 87.2442 96.6229C87.2706 96.1258 87.2758 95.6311 87.2959 95.1336C89.5722 94.6327 91.0465 92.6935 90.7538 90.15C85.6703 46.0726 41.0367 23.339 0.353882 20.0522C21.2097 16.7091 41.7711 21.5022 58.6661 31.9155C67.0589 35.7798 74.8906 40.9371 81.7899 47.1504C96.6786 60.5598 112.344 84.3977 106.331 105.263C110.775 107.229 115.218 109.196 119.661 111.162C121.133 111.812 121.451 113.311 121.029 114.492C121.051 114.573 121.066 114.654 121.081 114.737C121.515 115.878 121.27 117.214 119.891 117.787C119.631 117.894 119.37 118.001 119.11 118.109C106.87 125.47 94.1546 131.73 80.8579 136.961C79.4424 137.518 77.4016 136.888 77.2293 135.115C75.7805 120.104 72.567 105.617 67.4535 91.4247C67.3957 91.2676 67.3748 91.1022 67.3521 90.9356Z" fill="#C51E1E"/>
</svg>
