<svg width="3" height="18" viewBox="0 0 3 18" fill="none" xmlns="http://www.w3.org/2000/svg">
<path d="M2.33439 12.128H0.654386L0.486386 0.199951H2.50239L2.33439 12.128ZM2.35839 15.152C2.59839 15.36 2.71839 15.656 2.71839 16.04C2.71839 16.424 2.59839 16.72 2.35839 16.928C2.11839 17.136 1.83039 17.24 1.49439 17.24C1.15839 17.24 0.870386 17.136 0.630386 16.928C0.390386 16.72 0.270386 16.424 0.270386 16.04C0.270386 15.656 0.390386 15.36 0.630386 15.152C0.870386 14.944 1.15839 14.84 1.49439 14.84C1.83039 14.84 2.11839 14.944 2.35839 15.152Z" fill="white"/>
</svg>
