<svg width="17" height="17" viewBox="0 0 17 17" fill="none" xmlns="http://www.w3.org/2000/svg">
<path d="M10.0054 8.49391L11.5078 6.99149C11.7155 6.78324 11.7155 6.44745 11.5078 6.24028L10.7566 5.48853C10.5489 5.28135 10.2131 5.28082 10.0054 5.48853L8.50241 6.99149L7.00052 5.4896C6.79227 5.28135 6.45595 5.28135 6.24824 5.48853L5.49703 6.24028C5.28932 6.44745 5.28985 6.78431 5.4981 6.99202L6.99999 8.49391L5.50072 9.99312C5.293 10.2008 5.293 10.5366 5.50072 10.7443L6.25193 11.4961C6.45964 11.7033 6.79542 11.7038 7.00314 11.4961L8.50235 9.99686L10.0122 11.5072C10.2204 11.7155 10.5568 11.7155 10.7645 11.5078L11.5157 10.7566C11.7234 10.5489 11.7229 10.2125 11.5152 10.0043L10.0054 8.49391ZM8.50027 0C3.80544 0 0 3.8055 0 8.49973C0 13.1946 3.80544 17 8.50027 17C13.1951 17 17.0005 13.1946 17.0005 8.49973C17.0005 3.80603 13.195 0 8.50027 0ZM8.50027 15.4062C4.68579 15.4062 1.59383 12.3143 1.59383 8.49979C1.59383 4.68532 4.68579 1.59329 8.50027 1.59329C12.3147 1.59329 15.4067 4.68526 15.4067 8.49973C15.4067 12.3142 12.3147 15.4062 8.50027 15.4062Z" fill="#E62525"/>
</svg>
