<svg width="122" height="46" viewBox="0 0 122 46" fill="none" xmlns="http://www.w3.org/2000/svg">
<path d="M35.6465 36.7402V41.7622C35.6465 42.2508 36.0425 42.6468 36.5311 42.6468H41.4794C41.968 42.6468 42.364 42.2508 42.364 41.7622V38.2494" stroke="#403D2E" stroke-width="1.32692"/>
<path d="M80.4302 36.7402L80.4302 41.7623C80.4302 42.2509 80.0341 42.6469 79.5456 42.6469H74.5972C74.1087 42.6469 73.7126 42.2509 73.7126 41.7623V38.2495" stroke="#403D2E" stroke-width="1.32692"/>
<path d="M35.0381 24.9376V31.0152C35.0381 32.2878 35.5532 33.5073 36.4646 34.3954C37.1831 35.0955 38.1074 35.5453 39.107 35.6298C41.4527 35.828 46.6975 36.1445 56.2689 36.1445C65.8402 36.1445 71.085 35.828 73.4307 35.6298C74.4303 35.5453 75.3546 35.0955 76.0731 34.3954C76.9845 33.5073 77.4996 32.2878 77.4996 31.0152V24.9376C77.4996 23.7578 77.1678 22.6018 76.5421 21.6015L74.1517 17.7802C73.8137 17.2399 73.597 16.6355 73.4641 16.0122C72.6364 12.1317 70.3729 7.91273 66.2208 6.86319C63.5669 6.19238 57.5958 6.19238 57.5958 6.19238H54.9419C54.9419 6.19238 48.9708 6.19238 46.3169 6.86319C42.1648 7.91273 39.9013 12.1317 39.0736 16.0122C38.9407 16.6355 38.724 17.2399 38.386 17.7802L35.9956 21.6015C35.3699 22.6018 35.0381 23.7578 35.0381 24.9376Z" fill="url(#paint0_linear)"/>
<path d="M58.0385 39.004C47.2707 39.004 41.3703 38.6479 38.7314 38.425C37.6068 38.33 36.567 37.8239 35.7587 37.0363V37.0363C34.7333 36.0372 34.1538 34.6652 34.1538 33.2336V28.1656C34.1538 26.8383 34.5271 25.5377 35.231 24.4124L37.9202 20.1135C38.3005 19.5056 38.5443 18.8257 38.6938 18.1245C39.625 13.7589 42.1714 9.01254 46.8425 7.83181C49.8281 7.07715 56.5457 7.07715 56.5457 7.07715H59.5312" stroke="#403D2E" stroke-width="1.32692" stroke-linecap="round" stroke-linejoin="round"/>
<path d="M58.0387 39.004C68.8065 39.004 74.7069 38.6479 77.3457 38.425C78.4703 38.33 79.5102 37.8239 80.3185 37.0363V37.0363C81.3438 36.0372 81.9233 34.6652 81.9233 33.2336V28.1656C81.9233 26.8383 81.55 25.5377 80.8461 24.4124L78.1569 20.1135C77.7767 19.5056 77.5328 18.8252 77.3832 18.1241C76.9307 16.0025 76.0966 13.791 74.8226 11.9425C73.4751 9.98756 71.6355 8.43869 69.2346 7.83181C66.249 7.07715 59.5315 7.07715 59.5315 7.07715H56.5459" stroke="#403D2E" stroke-width="1.32692" stroke-linecap="round" stroke-linejoin="round"/>
<path d="M58.0383 20.7894H52.0672H50.5744M41.6177 19.2803C42.8119 20.4876 45.1008 20.7894 46.096 20.7894H47.5888" stroke="#403D2E" stroke-width="1.32692" stroke-linecap="round" stroke-linejoin="round"/>
<path d="M58.0383 20.7894H69.9806C70.9758 20.7894 73.2648 20.4876 74.459 19.2803" stroke="#403D2E" stroke-width="1.32692" stroke-linecap="round" stroke-linejoin="round"/>
<path d="M58.0386 28.4395H50.5747C49.1593 28.4395 46.1335 28.9821 44.8056 31.0966C44.6609 31.3271 44.5946 31.6018 44.6523 31.8677C44.7763 32.4392 45.1625 33.2495 46.0963 33.7215" stroke="#403D2E" stroke-width="1.32692" stroke-linecap="round" stroke-linejoin="round"/>
<path d="M58.038 28.4395H61.77M69.9804 33.7215C70.9141 33.2495 71.3003 32.4392 71.4243 31.8677C71.4821 31.6018 71.4158 31.3271 71.2711 31.0966C69.9432 28.9821 66.9174 28.4395 65.502 28.4395H64.569" stroke="#403D2E" stroke-width="1.32692" stroke-linecap="round" stroke-linejoin="round"/>
<path d="M58.0381 25.8115H56.9185H56.3587M49.0814 26.5661C50.8727 25.9624 52.8133 25.8115 53.5597 25.8115H54.1195" stroke="#403D2E" stroke-width="1.32692" stroke-linecap="round" stroke-linejoin="round"/>
<path d="M58.0381 25.8115H62.5165C63.2628 25.8115 65.2035 25.9624 66.9948 26.5661" stroke="#403D2E" stroke-width="1.32692" stroke-linecap="round" stroke-linejoin="round"/>
<path d="M39.8477 22.6631C42.0869 23.9207 46.1174 26.8887 44.3261 28.6997C42.0869 30.9635 38.3551 27.9451 37.6087 27.1906C37.0116 26.5869 36.8083 26.2508 36.8081 25.6538" stroke="#403D2E" stroke-width="1.32692" stroke-linecap="round" stroke-linejoin="round"/>
<path d="M76.2328 22.6631C73.9936 23.9207 69.9631 26.8887 71.7545 28.6997C73.9936 30.9635 77.7255 27.9451 78.4719 27.1906C79.069 26.5869 79.2723 26.2508 79.2725 25.6538" stroke="#403D2E" stroke-width="1.32692" stroke-linecap="round" stroke-linejoin="round"/>
<path d="M37.1387 30.7031C38.6315 30.9547 41.9156 32.3632 43.1098 35.9852" stroke="#403D2E" stroke-width="1.32692" stroke-linecap="round" stroke-linejoin="round"/>
<path d="M37.1387 33.7212C37.1387 34.2242 37.8851 35.9849 40.1242 35.9849" stroke="#403D2E" stroke-width="1.32692" stroke-linecap="round" stroke-linejoin="round"/>
<path d="M46.0654 35.9863H49.0491" stroke="#403D2E" stroke-width="1.32692" stroke-linecap="round" stroke-linejoin="round"/>
<path d="M66.9521 35.9854H69.9358" stroke="#403D2E" stroke-width="1.32692" stroke-linecap="round" stroke-linejoin="round"/>
<path d="M52.0679 35.9854H64.0102" stroke="#403D2E" stroke-width="1.32692" stroke-linecap="round" stroke-linejoin="round"/>
<path d="M78.9375 30.7031C77.4447 30.9547 74.1606 32.3632 72.9663 35.9852" stroke="#403D2E" stroke-width="1.32692" stroke-linecap="round" stroke-linejoin="round"/>
<path d="M78.9375 33.7212C78.9375 34.2242 78.1911 35.9849 75.9519 35.9849" stroke="#403D2E" stroke-width="1.32692" stroke-linecap="round" stroke-linejoin="round"/>
<path d="M39.3788 16.7568H35.785C35.2964 16.7568 34.9004 17.1529 34.9004 17.6415V18.8905C34.9004 19.3791 35.2964 19.7752 35.785 19.7752H38.6324" stroke="#403D2E" stroke-width="1.32692"/>
<path d="M77.4448 19.7749L80.2921 19.7749C80.7807 19.7749 81.1768 19.3788 81.1768 18.8903L81.1768 17.6412C81.1768 17.1526 80.7807 16.7566 80.2921 16.7566L76.6984 16.7566" stroke="#403D2E" stroke-width="1.32692"/>
<path d="M84.5771 29.8868V41.1454C84.5771 42.1226 85.3693 42.9147 86.3464 42.9147H97.605C98.0742 42.9147 98.5242 42.7283 98.856 42.3965L114.288 26.9648C114.979 26.2739 114.979 25.1537 114.288 24.4628L103.029 13.2042C102.338 12.5132 101.218 12.5132 100.527 13.2042L85.0953 28.6358C84.7635 28.9676 84.5771 29.4176 84.5771 29.8868Z" fill="url(#paint1_linear)"/>
<circle cx="88.9997" cy="38.4909" r="1.76923" fill="white"/>
<path d="M101.101 29.266C100.901 29.0656 100.685 28.963 100.456 28.9581C100.226 28.9484 99.928 29.0265 99.5615 29.1927C99.195 29.3588 98.8664 29.4896 98.5756 29.5849C98.2824 29.6777 98.0026 29.7302 97.7363 29.7425C97.4699 29.7498 97.2109 29.7058 96.9593 29.6105C96.71 29.5128 96.4657 29.3442 96.2262 29.1047C95.8133 28.6918 95.6068 28.2214 95.6068 27.6937C95.6068 27.1659 95.8035 26.6613 96.1969 26.1799L95.4126 25.3956L95.999 24.8092L96.7943 25.6045C97.2879 25.2331 97.8071 25.0755 98.352 25.1317C98.8945 25.1855 99.4039 25.4506 99.8804 25.9271L98.8211 26.9863C98.5279 26.6931 98.2482 26.5355 97.9818 26.5135C97.7155 26.4866 97.4809 26.5746 97.2781 26.7774C97.0778 26.9777 96.98 27.1903 96.9849 27.4151C96.9874 27.6375 97.0888 27.8488 97.2891 28.0492C97.4748 28.2349 97.6776 28.3302 97.8975 28.3351C98.1174 28.3399 98.4314 28.2556 98.8395 28.0822C99.25 27.9062 99.6018 27.7767 99.895 27.6937C100.186 27.6081 100.462 27.5666 100.723 27.569C100.982 27.569 101.23 27.6191 101.467 27.7193C101.702 27.817 101.93 27.9771 102.153 28.1994C102.568 28.6148 102.776 29.0815 102.776 29.5995C102.776 30.1175 102.572 30.627 102.164 31.1279L102.893 31.8573L102.31 32.44L101.585 31.7143C101.03 32.1615 100.464 32.3728 99.8877 32.3484C99.3111 32.3191 98.7723 32.0539 98.2714 31.553L99.3306 30.4938C99.6214 30.7846 99.9134 30.9397 100.207 30.9593C100.5 30.974 100.776 30.8518 101.035 30.5928C101.25 30.3778 101.364 30.1517 101.376 29.9147C101.386 29.6753 101.294 29.459 101.101 29.266Z" fill="#333333"/>
<defs>
<linearGradient id="paint0_linear" x1="56.2689" y1="6.19238" x2="56.2689" y2="36.1445" gradientUnits="userSpaceOnUse">
<stop stop-color="#FADB69"/>
<stop offset="1" stop-color="#F4D14E"/>
</linearGradient>
<linearGradient id="paint1_linear" x1="100.058" y1="11.9531" x2="100.058" y2="42.9147" gradientUnits="userSpaceOnUse">
<stop stop-color="#FADB69"/>
<stop offset="1" stop-color="#F4D14E"/>
</linearGradient>
</defs>
</svg>
