<svg width="122" height="46" viewBox="0 0 122 46" fill="none" xmlns="http://www.w3.org/2000/svg">
<path d="M84.5766 30.3185V41.5771C84.5766 42.5542 85.3687 43.3463 86.3458 43.3463H97.6044C98.0737 43.3463 98.5237 43.1599 98.8555 42.8281L114.287 27.3965C114.978 26.7056 114.978 25.5853 114.287 24.8944L103.028 13.6358C102.338 12.9449 101.217 12.9449 100.526 13.6358L85.0948 29.0674C84.763 29.3992 84.5766 29.8492 84.5766 30.3185Z" fill="url(#paint0_linear)"/>
<circle cx="89.0003" cy="38.923" r="1.76923" fill="white"/>
<path d="M97.563 33.6893C97.3626 33.489 97.1476 33.3864 96.9179 33.3815C96.6882 33.3717 96.3901 33.4499 96.0236 33.616C95.6571 33.7822 95.3285 33.9129 95.0377 34.0082C94.7445 34.1011 94.4647 34.1536 94.1984 34.1658C93.932 34.1731 93.673 34.1292 93.4214 34.0339C93.1721 33.9361 92.9278 33.7675 92.6883 33.5281C92.2754 33.1151 92.0689 32.6448 92.0689 32.117C92.0689 31.5892 92.2656 31.0846 92.659 30.6033L91.8747 29.8189L92.4611 29.2325L93.2564 30.0279C93.75 29.6565 94.2692 29.4989 94.8141 29.5551C95.3566 29.6088 95.866 29.8739 96.3425 30.3504L95.2833 31.4096C94.99 31.1164 94.7103 30.9588 94.4439 30.9368C94.1776 30.9099 93.943 30.9979 93.7402 31.2007C93.5399 31.4011 93.4421 31.6136 93.447 31.8384C93.4495 32.0608 93.5509 32.2721 93.7512 32.4725C93.9369 32.6582 94.1397 32.7535 94.3596 32.7584C94.5796 32.7633 94.8935 32.679 95.3016 32.5055C95.7121 32.3296 96.0639 32.2001 96.3571 32.117C96.6479 32.0315 96.924 31.9899 97.1855 31.9924C97.4445 31.9924 97.6925 32.0425 97.9295 32.1426C98.1641 32.2404 98.3925 32.4004 98.6149 32.6228C99.0303 33.0382 99.2379 33.5049 99.2379 34.0229C99.2379 34.5409 99.0339 35.0503 98.6259 35.5512L99.3552 36.2806L98.7725 36.8633L98.0468 36.1377C97.4921 36.5848 96.9265 36.7962 96.3498 36.7717C95.7732 36.7424 95.2344 36.4773 94.7335 35.9764L95.7927 34.9172C96.0835 35.2079 96.3755 35.3631 96.6687 35.3826C96.9619 35.3973 97.238 35.2751 97.497 35.0161C97.712 34.8011 97.8256 34.5751 97.8379 34.3381C97.8476 34.0986 97.756 33.8824 97.563 33.6893Z" fill="#333333"/>
<path d="M101.986 29.266C101.786 29.0656 101.57 28.963 101.341 28.9581C101.111 28.9484 100.813 29.0265 100.447 29.1927C100.08 29.3588 99.7514 29.4896 99.4606 29.5849C99.1674 29.6777 98.8876 29.7302 98.6213 29.7425C98.3549 29.7498 98.0959 29.7058 97.8443 29.6105C97.595 29.5128 97.3507 29.3442 97.1112 29.1047C96.6983 28.6918 96.4918 28.2214 96.4918 27.6937C96.4918 27.1659 96.6885 26.6613 97.0819 26.1799L96.2976 25.3956L96.884 24.8092L97.6793 25.6045C98.1729 25.2331 98.6921 25.0755 99.237 25.1317C99.7795 25.1855 100.289 25.4506 100.765 25.9271L99.7062 26.9863C99.4129 26.6931 99.1332 26.5355 98.8668 26.5135C98.6005 26.4866 98.3659 26.5746 98.1631 26.7774C97.9628 26.9777 97.865 27.1903 97.8699 27.4151C97.8724 27.6375 97.9738 27.8488 98.1741 28.0492C98.3598 28.2349 98.5626 28.3302 98.7825 28.3351C99.0025 28.3399 99.3164 28.2556 99.7245 28.0822C100.135 27.9062 100.487 27.7767 100.78 27.6937C101.071 27.6081 101.347 27.5666 101.608 27.569C101.867 27.569 102.115 27.6191 102.352 27.7193C102.587 27.817 102.815 27.9771 103.038 28.1994C103.453 28.6148 103.661 29.0815 103.661 29.5995C103.661 30.1175 103.457 30.627 103.049 31.1279L103.778 31.8573L103.195 32.44L102.47 31.7143C101.915 32.1615 101.349 32.3728 100.773 32.3484C100.196 32.3191 99.6573 32.0539 99.1564 31.553L100.216 30.4938C100.506 30.7846 100.798 30.9397 101.092 30.9593C101.385 30.974 101.661 30.8518 101.92 30.5928C102.135 30.3778 102.249 30.1517 102.261 29.9147C102.271 29.6753 102.179 29.459 101.986 29.266Z" fill="#333333"/>
<path d="M106.409 24.8431C106.208 24.6428 105.993 24.5402 105.764 24.5353C105.534 24.5255 105.236 24.6037 104.869 24.7698C104.503 24.936 104.174 25.0667 103.883 25.162C103.59 25.2549 103.31 25.3074 103.044 25.3196C102.778 25.3269 102.519 25.283 102.267 25.1877C102.018 25.0899 101.774 24.9213 101.534 24.6819C101.121 24.2689 100.915 23.7986 100.915 23.2708C100.915 22.743 101.111 22.2385 101.505 21.7571L100.72 20.9728L101.307 20.3863L102.102 21.1817C102.596 20.8103 103.115 20.6527 103.66 20.7089C104.202 20.7626 104.712 21.0277 105.188 21.5042L104.129 22.5634C103.836 22.2702 103.556 22.1126 103.29 22.0906C103.023 22.0637 102.789 22.1517 102.586 22.3545C102.386 22.5549 102.288 22.7675 102.293 22.9922C102.295 23.2146 102.397 23.426 102.597 23.6263C102.783 23.812 102.986 23.9073 103.205 23.9122C103.425 23.9171 103.739 23.8328 104.147 23.6593C104.558 23.4834 104.91 23.3539 105.203 23.2708C105.494 23.1853 105.77 23.1437 106.031 23.1462C106.29 23.1462 106.538 23.1963 106.775 23.2965C107.01 23.3942 107.238 23.5542 107.461 23.7766C107.876 24.192 108.084 24.6587 108.084 25.1767C108.084 25.6947 107.88 26.2041 107.472 26.705L108.201 27.4344L107.618 28.0172L106.893 27.2915C106.338 27.7386 105.772 27.95 105.196 27.9255C104.619 27.8962 104.08 27.6311 103.579 27.1302L104.639 26.071C104.929 26.3617 105.221 26.5169 105.514 26.5364C105.808 26.5511 106.084 26.4289 106.343 26.1699C106.558 25.9549 106.671 25.7289 106.684 25.4919C106.693 25.2524 106.602 25.0362 106.409 24.8431Z" fill="#333333"/>
<path d="M42.6288 6.21081C43.7018 4.07302 45.3112 3.53857 45.9818 3.53857H67.4408C68.1114 3.53857 69.7209 4.07302 70.7938 6.21081C72.135 8.88305 72.135 11.5553 74.1468 14.2275C76.1586 16.8998 77.4998 15.5636 77.4998 22.9123V28.2568C77.4998 30.929 76.1586 32.2651 72.8056 32.9332C68.5971 33.7717 59.8408 33.6013 56.7113 33.6013C53.5819 33.6013 44.8255 33.7717 40.617 32.9332C37.264 32.2651 35.9229 30.929 35.9229 28.2568V22.9123C35.9229 15.5636 37.264 16.8998 39.2758 14.2275C41.2876 11.5553 41.2876 8.88305 42.6288 6.21081Z" fill="url(#paint1_linear)"/>
<path d="M58.0384 3.10986H46.9807C46.2343 3.10986 43.5584 3.70698 42.3641 6.09544C40.8713 9.08102 40.8713 12.0666 38.6321 15.0522C36.393 18.0377 34.9002 16.545 34.9002 24.7553C34.9002 31.3236 34.9002 30.9752 34.9002 30.7265C34.9002 33.712 35.4807 38.0384 38.6321 38.0384C40.7884 38.0384 43.4422 38.0384 44.7692 37.1537C46.391 36.8589 53.4384 36.7114 58.0384 36.7114" stroke="#403D2E" stroke-width="1.32692" stroke-linecap="round" stroke-linejoin="round"/>
<path d="M58.0382 3.09619H69.0959C69.8423 3.09619 72.5182 3.69331 73.7124 6.08177C75.2052 9.06735 75.2052 12.0529 77.4444 15.0385C79.6836 18.0241 81.1764 16.5313 81.1764 24.7416C81.1764 31.3099 81.1764 30.9616 81.1764 30.7128C81.1764 33.6984 80.5959 38.0247 77.4444 38.0247C75.2882 38.0247 72.6343 38.0247 71.3074 37.1401C69.6856 36.8452 62.6382 36.6978 58.0382 36.6978" stroke="#403D2E" stroke-width="1.32692" stroke-linecap="round" stroke-linejoin="round"/>
<path d="M58.0381 32.2192H49.0814C48.335 32.2192 46.8422 32.6671 46.8422 34.4584" stroke="#403D2E" stroke-width="1.32692" stroke-linecap="round" stroke-linejoin="round"/>
<path d="M37.7475 31.4731L40.7975 31.9815C41.7129 32.134 42.5317 32.6401 43.0775 33.3906L43.8845 34.5002" stroke="#403D2E" stroke-width="1.32692" stroke-linecap="round" stroke-linejoin="round"/>
<path d="M78.3291 31.4038L75.279 31.9122C74.3637 32.0647 73.5449 32.5708 72.9991 33.3212L72.1921 34.4309" stroke="#403D2E" stroke-width="1.32692" stroke-linecap="round" stroke-linejoin="round"/>
<path d="M58.0385 18.9225H52.8138H51.5076M48.8952 18.9225L45.3211 18.6231C44.9542 18.5924 44.5916 18.5236 44.2389 18.4178L40.3462 17.25" stroke="#403D2E" stroke-width="1.32692" stroke-linecap="round" stroke-linejoin="round"/>
<path d="M58.0385 18.9225H63.2633H67.1818L70.7559 18.6231C71.1228 18.5924 71.4855 18.5236 71.8381 18.4178L75.7308 17.25" stroke="#403D2E" stroke-width="1.32692" stroke-linecap="round" stroke-linejoin="round"/>
<path d="M50.436 21.0234L51.3206 26.2482" stroke="#403D2E" stroke-width="1.32692" stroke-linecap="round" stroke-linejoin="round"/>
<path d="M55.7993 21.0234V26.2482" stroke="#403D2E" stroke-width="1.32692" stroke-linecap="round" stroke-linejoin="round"/>
<path d="M40.1249 12.8134L38.8947 10.9681C38.7306 10.722 38.4544 10.5742 38.1586 10.5742H35.0383C34.5498 10.5742 34.1537 10.9703 34.1537 11.4588V13.5568C34.1537 13.9892 34.4663 14.3583 34.8929 14.4294L38.6321 15.0526" stroke="#403D2E" stroke-width="1.32692"/>
<path d="M35.9229 36.2695V41.5772C35.9229 42.0658 36.3189 42.4618 36.8075 42.4618H43.4421C43.9306 42.4618 44.3267 42.0658 44.3267 41.5772V37.3753" stroke="#403D2E" stroke-width="1.32692"/>
<path d="M60.4159 12.813H45.488C44.3269 12.8268 43 13.2691 42.1154 14.1537" stroke="#403D2E" stroke-width="1.32692" stroke-linecap="round" stroke-linejoin="round"/>
<path d="M56.2691 12.8271H71.1969C72.358 12.841 73.6849 13.2833 74.5695 14.1679" stroke="#403D2E" stroke-width="1.32692" stroke-linecap="round" stroke-linejoin="round"/>
<path d="M58.0384 32.2192H62.5168H63.6364M69.2343 34.4584C69.2343 32.6671 67.7416 32.2192 66.9952 32.2192H65.8756" stroke="#403D2E" stroke-width="1.32692" stroke-linecap="round" stroke-linejoin="round"/>
<path d="M65.6406 21.0234L64.756 26.2482" stroke="#403D2E" stroke-width="1.32692" stroke-linecap="round" stroke-linejoin="round"/>
<path d="M39.0191 19.4614L45.2114 21.2307L46.5384 25.6537L42.1153 24.3268C41.5255 23.5896 41.496 22.4691 39.0191 22.1153" stroke="#403D2E" stroke-width="1.32692" stroke-linecap="round" stroke-linejoin="round"/>
<path d="M77.0574 19.4614L70.8651 21.2307L70.2017 23.4422L69.5382 25.6537L71.7497 24.9903L73.9613 24.3268C74.551 23.5896 74.5805 22.4691 77.0574 22.1153" stroke="#403D2E" stroke-width="1.32692" stroke-linecap="round" stroke-linejoin="round"/>
<path d="M60.2777 21.0234V21.6765M60.2777 26.2482V24.942V23.6358" stroke="#403D2E" stroke-width="1.32692" stroke-linecap="round" stroke-linejoin="round"/>
<path d="M75.9517 12.8134L77.1819 10.9681C77.3459 10.722 77.6222 10.5742 77.9179 10.5742H81.0382C81.5268 10.5742 81.9229 10.9703 81.9229 11.4588V13.5568C81.9229 13.9892 81.6102 14.3583 81.1837 14.4294L77.4445 15.0526" stroke="#403D2E" stroke-width="1.32692"/>
<path d="M80.1537 36.2695V41.5772C80.1537 42.0658 79.7576 42.4618 79.2691 42.4618H76.6152H72.6345C72.1459 42.4618 71.7499 42.0658 71.7499 41.5772V37.3753" stroke="#403D2E" stroke-width="1.32692"/>
<path d="M58.0386 29.2337C53.0627 29.2337 46.8427 29.2337 43.1107 28.4873" stroke="#403D2E" stroke-width="1.32692" stroke-linecap="round" stroke-linejoin="round"/>
<path d="M40.678 35.9928C40.678 35.9928 39.1852 35.9928 37.6924 34.5" stroke="#403D2E" stroke-width="1.32692" stroke-linecap="round" stroke-linejoin="round"/>
<path d="M75.731 35.9928C75.731 35.9928 77.2238 35.9928 78.7166 34.5" stroke="#403D2E" stroke-width="1.32692" stroke-linecap="round" stroke-linejoin="round"/>
<path d="M58.0382 29.2337C63.0142 29.2337 69.2341 29.2337 72.9661 28.4873" stroke="#403D2E" stroke-width="1.32692" stroke-linecap="round" stroke-linejoin="round"/>
<path d="M75.2054 28.0314C75.2054 28.0314 76.6982 28.0314 78.191 26.5386" stroke="#403D2E" stroke-width="1.32692" stroke-linecap="round" stroke-linejoin="round"/>
<path d="M40.6775 28.0314C40.6775 28.0314 39.1847 28.0314 37.6919 26.5386" stroke="#403D2E" stroke-width="1.32692" stroke-linecap="round" stroke-linejoin="round"/>
<defs>
<linearGradient id="paint0_linear" x1="100.057" y1="12.3848" x2="100.057" y2="43.3463" gradientUnits="userSpaceOnUse">
<stop stop-color="#FADB69"/>
<stop offset="1" stop-color="#F4D14E"/>
</linearGradient>
<linearGradient id="paint1_linear" x1="56.7113" y1="3.53857" x2="56.7113" y2="33.6155" gradientUnits="userSpaceOnUse">
<stop stop-color="#FADB69"/>
<stop offset="1" stop-color="#F4D14E"/>
</linearGradient>
</defs>
</svg>
