<svg width="127" height="57" viewBox="0 0 127 57" fill="none" xmlns="http://www.w3.org/2000/svg">
<path d="M10.349 34.156C10.5871 34.1119 10.8317 34.0237 11.0768 33.8679C12.8703 32.6979 14.6643 31.529 16.4565 30.3593C15.7561 31.2345 15.0536 32.1075 14.3536 32.9838C13.6617 33.8506 13.7988 34.89 14.3429 35.5988C13.2641 36.0449 12.1781 36.4777 11.0947 36.914C10.8311 35.9944 10.5776 35.0758 10.349 34.156ZM27.415 27.1159C25.963 27.4929 24.5271 27.9152 23.1243 28.443C23.8074 27.5666 24.4935 26.6905 25.1792 25.8132C25.9312 26.2396 26.6791 26.6702 27.415 27.1159ZM9.32935 29.441C9.62933 29.4104 9.93512 29.3289 10.2426 29.1192C11.4448 28.2991 12.662 27.5807 13.8924 26.9029C12.5339 28.0994 11.0731 29.2058 9.48319 30.2477C9.42923 29.9792 9.38077 29.7103 9.32935 29.441ZM15.0225 18.5805C15.1937 18.1726 15.2173 17.7721 15.1602 17.3995C15.4086 17.202 15.6635 17.0206 15.9156 16.8304C16.0487 16.916 16.1818 17.0058 16.3154 17.0884C16.4161 17.1607 16.5181 17.2327 16.6197 17.3033C16.6465 17.338 16.6741 17.3669 16.7001 17.3991C16.68 17.5094 16.6789 17.622 16.676 17.7337C16.237 18.0214 15.7913 18.2805 15.3568 18.5821C14.3171 19.2987 15.3505 20.8367 16.4352 20.2106C16.8321 19.9787 17.2441 19.7756 17.6449 19.5508C18.0315 19.7557 18.513 19.8216 19.0796 19.6409C19.0367 19.8919 19.0342 20.1381 19.0782 20.3846C17.0571 21.0722 15.1203 21.8459 13.2642 22.7727C13.849 21.3757 14.4368 19.9792 15.0225 18.5805ZM10.2798 14.4478C10.1638 13.1168 9.05946 12.4659 8.00865 12.5424C8.0013 12.1717 7.99397 11.801 7.98536 11.4307C7.98341 11.3388 7.96495 11.2565 7.95537 11.1713C9.45016 12.2277 10.945 13.2841 12.4376 14.3426C12.3236 14.5088 12.2011 14.6624 12.0892 14.8308C11.8103 15.2527 11.7586 15.7044 11.86 16.1271C11.3394 16.4443 10.8554 16.7747 10.3983 17.1146C10.3949 16.2447 10.3592 15.3616 10.2798 14.4478ZM46.0668 4.08988C45.4555 4.20239 44.8471 4.33219 44.2433 4.47595C40.9515 4.41125 37.6758 4.59373 34.4569 5.07046C38.1706 4.30045 42.0995 4.01838 46.0668 4.08988ZM43.3786 34.3584C39.3086 31.0623 35.6096 27.3942 32.8565 22.8297C32.115 22.3325 31.385 21.8148 30.6363 21.3256C31.0105 21.0969 31.3917 20.8855 31.7688 20.6615C31.2032 18.6876 32.0884 16.7325 34.1822 15.8936C70.4708 1.36501 106.79 26.4295 126.383 56.5802C120.235 39.0169 107.906 25.0907 92.7567 16.3607C86.2454 11.4756 78.9673 7.56726 71.2614 4.82372C54.6312 -1.09608 29.5936 -3.24862 15.9431 10.1538C12.5579 7.53333 9.17179 4.91457 5.78696 2.29537C4.66625 1.42685 3.37152 1.80867 2.63265 2.63042C2.56087 2.64683 2.49113 2.66958 2.42142 2.69233C1.35544 2.834 0.42224 3.58453 0.556049 4.8929C0.581892 5.13973 0.607714 5.38655 0.633558 5.63338C0.0576814 18.2028 0.534397 30.6798 2.05119 43.1764C2.21311 44.5064 3.55614 45.8241 5.00245 45.2148C17.2422 40.0483 29.816 36.4684 42.9569 34.4847C43.103 34.4637 43.2399 34.4106 43.3786 34.3584Z" fill="#131212" fill-opacity="0.45"/>
</svg>
