<svg width="116" height="89" viewBox="0 0 116 89" fill="none" xmlns="http://www.w3.org/2000/svg">
<path d="M104.496 55.5196C104.256 55.4925 103.996 55.5058 103.716 55.5835C101.66 56.1814 99.6036 56.778 97.5486 57.3759C98.4733 56.7423 99.3993 56.1113 100.324 55.4764C101.238 54.8484 101.409 53.814 101.095 52.9775C102.257 52.8646 103.422 52.7662 104.585 52.6639C104.57 53.6204 104.545 54.5731 104.496 55.5196ZM86.1205 57.292C87.6194 57.3536 89.1161 57.3672 90.6117 57.2701C89.7032 57.91 88.792 58.5487 87.8808 59.1887C87.2853 58.562 86.695 57.9325 86.1205 57.292ZM104.101 60.3273C103.805 60.2693 103.488 60.2584 103.133 60.3696C101.744 60.8046 100.371 61.1379 98.9966 61.4286C100.644 60.679 102.364 60.0452 104.188 59.5107C104.162 59.7833 104.13 60.0547 104.101 60.3273ZM95.495 69.0627C95.2125 69.4031 95.0735 69.7794 95.0197 70.1525C94.7247 70.2692 94.428 70.3686 94.1315 70.4773C94.029 70.3567 93.9278 70.2321 93.824 70.1142C93.7487 70.0157 93.672 69.9172 93.5953 69.8201C93.5798 69.7791 93.5618 69.7434 93.5463 69.705C93.5976 69.6053 93.6314 69.498 93.6666 69.3919C94.1704 69.2443 94.6721 69.1261 95.1756 68.9638C96.3787 68.5806 95.8373 66.8086 94.6175 67.0921C94.1702 67.1985 93.7169 67.2731 93.2682 67.3715C92.9578 67.0631 92.5163 66.8601 91.9217 66.8681C92.0357 66.6404 92.1096 66.4056 92.1393 66.1569C94.2729 66.0869 96.3511 65.91 98.3965 65.563C97.4307 66.7295 96.4621 67.8948 95.495 69.0627ZM98.8307 74.396C98.5546 75.7032 99.4219 76.6471 100.45 76.8796C100.349 77.2364 100.248 77.5932 100.149 77.9499C100.124 78.0385 100.117 78.1226 100.102 78.2069C98.9788 76.7615 97.8559 75.316 96.7356 73.8691C96.8931 73.7432 97.0548 73.6319 97.2109 73.5034C97.6005 73.1807 97.7813 72.7636 97.8072 72.3297C98.3976 72.1777 98.9568 72.0023 99.493 71.81C99.2432 72.6433 99.0205 73.4986 98.8307 74.396ZM61.5783 73.8982C62.1958 73.9683 62.8157 74.021 63.4352 74.0591C66.5659 75.0784 69.753 75.8565 72.9715 76.3365C69.1944 75.9932 65.3532 75.1204 61.5783 73.8982ZM72.9534 45.7199C75.8888 50.0571 78.3611 54.6425 79.6677 59.8104C80.2325 60.5017 80.7804 61.2094 81.3544 61.8952C80.9299 62.0052 80.5037 62.0965 80.0777 62.2012C80.0448 64.2543 78.6293 65.8674 76.3821 66.0611C37.4367 69.4078 9.97712 34.864 -0.000211229 0.318219C0.773723 18.9103 8.52028 35.8204 20.4753 48.5788C25.2844 55.1464 31.1113 61.0026 37.6862 65.8686C51.8758 76.3691 75.2051 85.7104 92.1634 76.8573C94.6402 80.349 97.1183 83.8394 99.595 87.3298C100.415 88.4867 101.765 88.4979 102.71 87.9266C102.784 87.9318 102.857 87.9303 102.931 87.9288C103.992 88.1033 105.103 87.6566 105.355 86.3659C105.402 86.1222 105.449 85.8785 105.496 85.6349C109.703 73.7763 112.876 61.7 115.059 49.3024C115.291 47.9827 114.389 46.3314 112.828 46.4938C99.6147 47.8773 86.5433 47.6455 73.3935 45.7216C73.2477 45.6992 73.1012 45.7102 72.9534 45.7199Z" fill="#131212" fill-opacity="0.45"/>
</svg>
