<svg width="24" height="24" viewBox="0 0 24 24" fill="none" xmlns="http://www.w3.org/2000/svg">
<path d="M22.2888 9.53064L20.8944 9.29064C20.7199 8.7169 20.49 8.16148 20.208 7.63224L21.0216 6.48024C21.2621 6.13755 21.3739 5.721 21.3375 5.30394C21.3011 4.88688 21.1187 4.49604 20.8224 4.20024L19.8096 3.18744C19.5135 2.89161 19.1228 2.7095 18.7058 2.67307C18.2889 2.63665 17.8725 2.74823 17.5296 2.98824L16.368 3.79224C15.8403 3.51055 15.2865 3.28067 14.7144 3.10584L14.4744 1.71144C14.4025 1.29867 14.187 0.924611 13.8659 0.65539C13.5449 0.386168 13.139 0.23912 12.72 0.240241H11.28C10.8614 0.239687 10.4561 0.386992 10.1356 0.656164C9.81501 0.925336 9.59983 1.29908 9.528 1.71144L9.288 3.10584C8.71509 3.28051 8.16048 3.51039 7.632 3.79224L6.48 2.97864C6.1373 2.73817 5.72076 2.6263 5.30369 2.66274C4.88663 2.69918 4.4958 2.88158 4.2 3.17784L3.1872 4.19064C2.89094 4.48644 2.70854 4.87728 2.6721 5.29434C2.63566 5.7114 2.74752 6.12795 2.988 6.47064L3.792 7.63224C3.51028 8.15995 3.2804 8.71375 3.1056 9.28584L1.7112 9.52584C1.29843 9.59775 0.924367 9.81327 0.655145 10.1343C0.385924 10.4554 0.238876 10.8613 0.239997 11.2802V12.7202C0.239918 13.1387 0.387394 13.5438 0.656483 13.8642C0.925573 14.1847 1.29904 14.4 1.7112 14.4722L3.1056 14.7122C3.2803 15.2851 3.51017 15.8397 3.792 16.3682L2.9784 17.5202C2.73746 17.8628 2.62531 18.2794 2.66176 18.6966C2.69821 19.1138 2.88091 19.5047 3.1776 19.8002L4.1904 20.813C4.4862 21.1093 4.87703 21.2917 5.2941 21.3281C5.71116 21.3646 6.1277 21.2527 6.4704 21.0122L7.632 20.2082C8.15972 20.4899 8.71351 20.7198 9.2856 20.8946L9.5256 22.289C9.5975 22.7018 9.81303 23.0759 10.1341 23.3451C10.4551 23.6143 10.861 23.7614 11.28 23.7602H12.72C13.1386 23.7608 13.5439 23.6135 13.8644 23.3443C14.185 23.0751 14.4002 22.7014 14.472 22.289L14.712 20.8946C15.2849 20.72 15.8395 20.4901 16.368 20.2082L17.52 21.0218C17.8629 21.2619 18.2793 21.3734 18.6962 21.337C19.1132 21.3006 19.5039 21.1185 19.8 20.8226L20.8128 19.8098C21.1095 19.5143 21.2922 19.1234 21.3286 18.7062C21.3651 18.289 21.2529 17.8724 21.012 17.5298L20.208 16.3682C20.4899 15.8406 20.7197 15.2868 20.8944 14.7146L22.2888 14.4746C22.7014 14.4023 23.0751 14.1866 23.3443 13.8657C23.6134 13.5447 23.7606 13.1391 23.76 12.7202V11.2802C23.76 10.8621 23.6124 10.4573 23.3433 10.1373C23.0742 9.81723 22.7008 9.60241 22.2888 9.53064ZM22.8 12.7202C22.8001 12.9128 22.7323 13.0992 22.6085 13.2467C22.4847 13.3942 22.3128 13.4933 22.1232 13.5266L20.4432 13.8218C20.3525 13.835 20.2674 13.8739 20.1981 13.9338C20.1288 13.9938 20.0781 14.0724 20.052 14.1602C19.8647 14.8566 19.5871 15.5254 19.2264 16.1498C19.1804 16.229 19.1581 16.3196 19.1619 16.411C19.1657 16.5024 19.1956 16.5908 19.248 16.6658L20.2344 18.0722C20.3456 18.2301 20.3975 18.4221 20.3808 18.6145C20.3641 18.8069 20.28 18.9871 20.1432 19.1234L19.1304 20.1362C18.9924 20.2701 18.8125 20.3522 18.621 20.3689C18.4295 20.3855 18.2381 20.3355 18.0792 20.2274L16.6752 19.2482C16.6002 19.1958 16.5118 19.166 16.4203 19.1621C16.3289 19.1583 16.2383 19.1807 16.1592 19.2266C15.5317 19.588 14.8596 19.8655 14.16 20.0522C14.0717 20.0761 13.992 20.1246 13.9303 20.1922C13.8686 20.2599 13.8276 20.3437 13.812 20.4338L13.5168 22.1138C13.4858 22.3036 13.3889 22.4765 13.2432 22.602C13.0975 22.7275 12.9123 22.7977 12.72 22.8002H11.28C11.0871 22.8002 10.9004 22.7321 10.7529 22.6078C10.6053 22.4835 10.5064 22.3111 10.4736 22.121L10.1784 20.441C10.1648 20.3508 10.1257 20.2662 10.0658 20.1974C10.0059 20.1285 9.92754 20.0782 9.84 20.0522C9.1437 19.8648 8.47485 19.5872 7.8504 19.2266C7.77127 19.1807 7.68066 19.1583 7.58924 19.1621C7.49782 19.166 7.4094 19.1958 7.3344 19.2482L5.928 20.2346C5.76904 20.3427 5.57767 20.3927 5.38617 20.3761C5.19467 20.3594 5.01476 20.2773 4.8768 20.1434L3.864 19.1306C3.72723 18.9943 3.64306 18.8141 3.62637 18.6217C3.60968 18.4293 3.66155 18.2373 3.7728 18.0794L4.7592 16.673C4.81197 16.5983 4.84227 16.51 4.84653 16.4185C4.85078 16.3271 4.82881 16.2364 4.7832 16.157C4.41875 15.5308 4.13796 14.8595 3.948 14.1602C3.92417 14.0719 3.8756 13.9922 3.80799 13.9305C3.74038 13.8689 3.65656 13.8278 3.5664 13.8122L1.8864 13.517C1.6966 13.486 1.52378 13.3892 1.39827 13.2435C1.27275 13.0978 1.20256 12.9125 1.2 12.7202V11.2802C1.19992 11.0877 1.26773 10.9013 1.39152 10.7538C1.51531 10.6063 1.68714 10.5072 1.8768 10.4738L3.5568 10.1762C3.64722 10.1633 3.73206 10.1248 3.80135 10.0652C3.87065 10.0057 3.92152 9.92767 3.948 9.84024C4.13544 9.14394 4.41298 8.47509 4.7736 7.85064C4.81921 7.77129 4.84118 7.68056 4.83693 7.58914C4.83267 7.49771 4.80237 7.40941 4.7496 7.33464L3.7632 5.92824C3.65195 5.77042 3.60008 5.57835 3.61677 5.38598C3.63346 5.19361 3.71763 5.01334 3.8544 4.87704L4.8672 3.86424C5.00516 3.73039 5.18507 3.64823 5.37657 3.63162C5.56807 3.615 5.75944 3.66495 5.9184 3.77304L7.3248 4.75944C7.3998 4.81185 7.48822 4.84173 7.57964 4.84555C7.67106 4.84938 7.76167 4.827 7.8408 4.78104C8.4679 4.41718 9.14004 4.13719 9.84 3.94824C9.92834 3.92442 10.008 3.87584 10.0697 3.80823C10.1313 3.74062 10.1724 3.6568 10.188 3.56664L10.4832 1.88664C10.5142 1.69685 10.611 1.52403 10.7567 1.39851C10.9025 1.273 11.0877 1.2028 11.28 1.20024H12.72C12.9126 1.20016 13.099 1.26798 13.2465 1.39177C13.394 1.51556 13.4931 1.68739 13.5264 1.87704L13.8216 3.55704C13.8348 3.64775 13.8736 3.7328 13.9336 3.80212C13.9936 3.87145 14.0721 3.92215 14.16 3.94824C14.8563 4.13574 15.5251 4.41328 16.1496 4.77384C16.2289 4.81945 16.3197 4.84142 16.4111 4.83717C16.5025 4.83292 16.5908 4.80262 16.6656 4.74984L18.0696 3.76344C18.2285 3.65535 18.4199 3.6054 18.6114 3.62202C18.8029 3.63863 18.9828 3.72079 19.1208 3.85464L20.1336 4.86744C20.2704 5.00374 20.3545 5.18401 20.3712 5.37638C20.3879 5.56875 20.336 5.76082 20.2248 5.91864L19.2384 7.32504C19.1856 7.39981 19.1553 7.48811 19.1511 7.57954C19.1468 7.67096 19.1688 7.76169 19.2144 7.84104C19.58 8.46786 19.8616 9.14002 20.052 9.84024C20.0758 9.92859 20.1244 10.0083 20.192 10.0699C20.2596 10.1316 20.3434 10.1726 20.4336 10.1882L22.1136 10.4858C22.303 10.5168 22.4755 10.6133 22.601 10.7585C22.7264 10.9037 22.7969 11.0884 22.8 11.2802V12.7202ZM18.4008 10.4354C18.396 10.1538 18.2828 9.88496 18.0847 9.6847C17.8867 9.48444 17.6191 9.36823 17.3376 9.36024H17.0976C16.9418 9.36262 16.7875 9.39185 16.6416 9.44664C16.4419 8.9383 16.2011 8.44708 15.9216 7.97784C15.7125 7.69748 15.4484 7.46267 15.1455 7.28771C14.8427 7.11276 14.5073 7.00134 14.16 6.96024C13.4455 6.84999 12.7228 6.80261 12 6.81864C11.2772 6.80261 10.5545 6.84999 9.84 6.96024C9.49551 7.0056 9.16376 7.1202 8.86473 7.29714C8.5657 7.47409 8.30556 7.70971 8.1 7.98984C7.81636 8.4595 7.57155 8.95154 7.368 9.46104C7.22133 9.4012 7.06545 9.3671 6.9072 9.36024H6.6672C6.38647 9.36755 6.1193 9.48249 5.92096 9.68128C5.72262 9.88007 5.60828 10.1475 5.6016 10.4282C5.6016 10.565 5.6016 10.7138 5.6016 10.8962C5.60459 11.1046 5.666 11.308 5.77886 11.4833C5.89172 11.6585 6.05149 11.7985 6.24 11.8874C6.07522 12.2826 5.99353 12.7074 6 13.1354V16.0922C6 16.3834 6.11547 16.6626 6.3211 16.8686C6.52672 17.0747 6.80569 17.1908 7.0968 17.1914H7.896C8.18422 17.1908 8.46068 17.0771 8.66582 16.8746C8.87097 16.6722 8.98839 16.3972 8.9928 16.109H14.9928C14.9972 16.3972 15.1146 16.6722 15.3198 16.8746C15.5249 17.0771 15.8014 17.1908 16.0896 17.1914H16.8888C17.0342 17.193 17.1784 17.1658 17.3131 17.1112C17.4479 17.0567 17.5705 16.976 17.6738 16.8738C17.7772 16.7715 17.8592 16.6498 17.9152 16.5157C17.9712 16.3815 18 16.2376 18 16.0922V13.145C18.0072 12.7138 17.9255 12.2857 17.76 11.8874C17.9482 11.7992 18.108 11.6601 18.2213 11.4858C18.3345 11.3114 18.3967 11.1089 18.4008 10.901C18.4008 10.721 18.4008 10.5722 18.4008 10.433V10.4354ZM17.4408 10.8794C17.4411 10.9006 17.4372 10.9217 17.4292 10.9414C17.4212 10.961 17.4094 10.9789 17.3944 10.9939C17.3794 11.0089 17.3616 11.0207 17.3419 11.0287C17.3223 11.0366 17.3012 11.0406 17.28 11.0402H16.9968C16.9077 11.0402 16.8203 11.0651 16.7444 11.1119C16.6686 11.1588 16.6073 11.2258 16.5675 11.3056C16.5276 11.3853 16.5107 11.4746 16.5187 11.5633C16.5267 11.6521 16.5593 11.7369 16.6128 11.8082L16.6872 11.9138C16.9278 12.2759 17.051 12.7033 17.04 13.1378V16.0922C17.04 16.1287 17.0257 16.1638 17.0001 16.1898C16.9745 16.2159 16.9397 16.2308 16.9032 16.2314H16.0968C16.0603 16.2308 16.0255 16.2159 15.9999 16.1898C15.9743 16.1638 15.96 16.1287 15.96 16.0922V15.629C15.96 15.5017 15.9094 15.3796 15.8194 15.2896C15.7294 15.1996 15.6073 15.149 15.48 15.149H8.52C8.39269 15.149 8.2706 15.1996 8.18058 15.2896C8.09057 15.3796 8.04 15.5017 8.04 15.629V16.0922C8.04 16.1287 8.02567 16.1638 8.00008 16.1898C7.97449 16.2159 7.9397 16.2308 7.9032 16.2314H7.1016C7.06551 16.2308 7.03107 16.2162 7.00555 16.1907C6.98002 16.1652 6.96541 16.1307 6.9648 16.0946V13.1282C6.95202 12.696 7.07269 12.2703 7.3104 11.909L7.3848 11.8034C7.43828 11.7321 7.47085 11.6473 7.47886 11.5585C7.48686 11.4698 7.46999 11.3805 7.43012 11.3008C7.39026 11.221 7.32898 11.154 7.25315 11.1071C7.17732 11.0603 7.08994 11.0354 7.0008 11.0354H6.72C6.68006 11.0336 6.64229 11.0168 6.61424 10.9883C6.5862 10.9598 6.56997 10.9218 6.5688 10.8818C6.5688 10.7234 6.5688 10.5914 6.5688 10.4714C6.56607 10.453 6.5673 10.4341 6.5724 10.4162C6.5775 10.3982 6.58635 10.3815 6.59838 10.3672C6.6104 10.3529 6.62532 10.3414 6.64214 10.3333C6.65897 10.3252 6.67733 10.3207 6.696 10.3202H6.9024C7.043 10.3322 7.17403 10.3964 7.2696 10.5002C7.32649 10.5535 7.39548 10.592 7.47062 10.6126C7.54575 10.6332 7.62477 10.6352 7.70084 10.6184C7.77692 10.6017 7.84777 10.5666 7.90728 10.5163C7.96678 10.4661 8.01316 10.4021 8.0424 10.3298C8.27256 9.70822 8.55268 9.10625 8.88 8.52984C9.01379 8.35177 9.18316 8.20348 9.37735 8.0944C9.57155 7.98532 9.78631 7.91784 10.008 7.89624C10.6671 7.79648 11.3336 7.75392 12 7.76904C12.6664 7.75392 13.3329 7.79648 13.992 7.89624C14.2137 7.91784 14.4284 7.98532 14.6226 8.0944C14.8168 8.20348 14.9862 8.35177 15.12 8.52984C15.4508 9.1075 15.7342 9.71108 15.9672 10.3346C15.9964 10.4068 16.0428 10.4709 16.1023 10.5211C16.1618 10.5714 16.2327 10.6065 16.3087 10.6232C16.3848 10.64 16.4638 10.638 16.539 10.6174C16.6141 10.5968 16.6831 10.5583 16.74 10.505C16.8338 10.4028 16.9619 10.3387 17.1 10.325H17.3136C17.3322 10.3243 17.3507 10.3275 17.3679 10.3344C17.3852 10.3414 17.4008 10.3519 17.4137 10.3652C17.4266 10.3786 17.4365 10.3945 17.4429 10.412C17.4492 10.4295 17.4518 10.4481 17.4504 10.4666C17.4456 10.5914 17.4456 10.721 17.4432 10.8794H17.4408Z" fill="#272727"/>
</svg>
