<svg width="18" height="18" viewBox="0 0 18 18" fill="none" xmlns="http://www.w3.org/2000/svg">
	<path d="M13.8367 18C13.6499 18 13.4624 17.9535 13.2905 17.8592L9.00002 15.5033L4.70952 17.8592C4.31407 18.0763 3.8348 18.0401 3.47324 17.7658C3.11175 17.4915 2.93065 17.0266 3.00625 16.5666L3.82564 11.5766L0.354542 8.04287C0.0346122 7.71713 -0.0805881 7.22988 0.057464 6.78604C0.195594 6.34219 0.562951 6.01866 1.00512 5.95156L5.80204 5.22358L7.94733 0.68359C8.14509 0.265 8.55322 0 9.00002 0C9.44688 0 9.85494 0.265 10.0527 0.683508L12.1979 5.2235L16.9949 5.95147C17.4371 6.01858 17.8045 6.34211 17.9425 6.78595C18.0806 7.2298 17.9654 7.71705 17.6454 8.04279L14.1743 11.5766L14.9938 16.5666C15.0693 17.0266 14.8882 17.4915 14.5267 17.7658C14.3223 17.921 14.0801 18 13.8367 18Z" fill="#FFC800"></path>
</svg>