<svg width="29" height="20" viewBox="0 0 29 20" fill="none" xmlns="http://www.w3.org/2000/svg">
<rect x="0.5" width="28" height="20" rx="2" fill="white"/>
<mask id="mask0" mask-type="alpha" maskUnits="userSpaceOnUse" x="0" y="0" width="29" height="20">
<rect x="0.5" width="28" height="20" rx="2" fill="white"/>
</mask>
<g mask="url(#mask0)">
<path fill-rule="evenodd" clip-rule="evenodd" d="M28.5 0H0.5V1.33333H28.5V0ZM28.5 2.66667H0.5V4H28.5V2.66667ZM0.5 5.33333H28.5V6.66667H0.5V5.33333ZM28.5 8H0.5V9.33333H28.5V8ZM0.5 10.6667H28.5V12H0.5V10.6667ZM28.5 13.3333H0.5V14.6667H28.5V13.3333ZM0.5 16H28.5V17.3333H0.5V16ZM28.5 18.6667H0.5V20H28.5V18.6667Z" fill="#D02F44"/>
<rect x="0.5" width="12" height="9.33333" fill="#46467F"/>
<g filter="url(#filter0_d)">
<path fill-rule="evenodd" clip-rule="evenodd" d="M3.16671 1.99998C3.16671 2.36817 2.86823 2.66665 2.50004 2.66665C2.13185 2.66665 1.83337 2.36817 1.83337 1.99998C1.83337 1.63179 2.13185 1.33331 2.50004 1.33331C2.86823 1.33331 3.16671 1.63179 3.16671 1.99998ZM5.83337 1.99998C5.83337 2.36817 5.5349 2.66665 5.16671 2.66665C4.79852 2.66665 4.50004 2.36817 4.50004 1.99998C4.50004 1.63179 4.79852 1.33331 5.16671 1.33331C5.5349 1.33331 5.83337 1.63179 5.83337 1.99998ZM7.83337 2.66665C8.20156 2.66665 8.50004 2.36817 8.50004 1.99998C8.50004 1.63179 8.20156 1.33331 7.83337 1.33331C7.46518 1.33331 7.16671 1.63179 7.16671 1.99998C7.16671 2.36817 7.46518 2.66665 7.83337 2.66665ZM11.1667 1.99998C11.1667 2.36817 10.8682 2.66665 10.5 2.66665C10.1319 2.66665 9.83337 2.36817 9.83337 1.99998C9.83337 1.63179 10.1319 1.33331 10.5 1.33331C10.8682 1.33331 11.1667 1.63179 11.1667 1.99998ZM3.83337 3.99998C4.20156 3.99998 4.50004 3.7015 4.50004 3.33331C4.50004 2.96512 4.20156 2.66665 3.83337 2.66665C3.46518 2.66665 3.16671 2.96512 3.16671 3.33331C3.16671 3.7015 3.46518 3.99998 3.83337 3.99998ZM7.16671 3.33331C7.16671 3.7015 6.86823 3.99998 6.50004 3.99998C6.13185 3.99998 5.83337 3.7015 5.83337 3.33331C5.83337 2.96512 6.13185 2.66665 6.50004 2.66665C6.86823 2.66665 7.16671 2.96512 7.16671 3.33331ZM9.16671 3.99998C9.5349 3.99998 9.83337 3.7015 9.83337 3.33331C9.83337 2.96512 9.5349 2.66665 9.16671 2.66665C8.79852 2.66665 8.50004 2.96512 8.50004 3.33331C8.50004 3.7015 8.79852 3.99998 9.16671 3.99998ZM11.1667 4.66665C11.1667 5.03484 10.8682 5.33331 10.5 5.33331C10.1319 5.33331 9.83337 5.03484 9.83337 4.66665C9.83337 4.29846 10.1319 3.99998 10.5 3.99998C10.8682 3.99998 11.1667 4.29846 11.1667 4.66665ZM7.83337 5.33331C8.20156 5.33331 8.50004 5.03484 8.50004 4.66665C8.50004 4.29846 8.20156 3.99998 7.83337 3.99998C7.46518 3.99998 7.16671 4.29846 7.16671 4.66665C7.16671 5.03484 7.46518 5.33331 7.83337 5.33331ZM5.83337 4.66665C5.83337 5.03484 5.5349 5.33331 5.16671 5.33331C4.79852 5.33331 4.50004 5.03484 4.50004 4.66665C4.50004 4.29846 4.79852 3.99998 5.16671 3.99998C5.5349 3.99998 5.83337 4.29846 5.83337 4.66665ZM2.50004 5.33331C2.86823 5.33331 3.16671 5.03484 3.16671 4.66665C3.16671 4.29846 2.86823 3.99998 2.50004 3.99998C2.13185 3.99998 1.83337 4.29846 1.83337 4.66665C1.83337 5.03484 2.13185 5.33331 2.50004 5.33331ZM4.50004 5.99998C4.50004 6.36817 4.20156 6.66665 3.83337 6.66665C3.46518 6.66665 3.16671 6.36817 3.16671 5.99998C3.16671 5.63179 3.46518 5.33331 3.83337 5.33331C4.20156 5.33331 4.50004 5.63179 4.50004 5.99998ZM6.50004 6.66665C6.86823 6.66665 7.16671 6.36817 7.16671 5.99998C7.16671 5.63179 6.86823 5.33331 6.50004 5.33331C6.13185 5.33331 5.83337 5.63179 5.83337 5.99998C5.83337 6.36817 6.13185 6.66665 6.50004 6.66665ZM9.83337 5.99998C9.83337 6.36817 9.5349 6.66665 9.16671 6.66665C8.79852 6.66665 8.50004 6.36817 8.50004 5.99998C8.50004 5.63179 8.79852 5.33331 9.16671 5.33331C9.5349 5.33331 9.83337 5.63179 9.83337 5.99998ZM10.5 7.99998C10.8682 7.99998 11.1667 7.7015 11.1667 7.33331C11.1667 6.96512 10.8682 6.66665 10.5 6.66665C10.1319 6.66665 9.83337 6.96512 9.83337 7.33331C9.83337 7.7015 10.1319 7.99998 10.5 7.99998ZM8.50004 7.33331C8.50004 7.7015 8.20156 7.99998 7.83337 7.99998C7.46518 7.99998 7.16671 7.7015 7.16671 7.33331C7.16671 6.96512 7.46518 6.66665 7.83337 6.66665C8.20156 6.66665 8.50004 6.96512 8.50004 7.33331ZM5.16671 7.99998C5.5349 7.99998 5.83337 7.7015 5.83337 7.33331C5.83337 6.96512 5.5349 6.66665 5.16671 6.66665C4.79852 6.66665 4.50004 6.96512 4.50004 7.33331C4.50004 7.7015 4.79852 7.99998 5.16671 7.99998ZM3.16671 7.33331C3.16671 7.7015 2.86823 7.99998 2.50004 7.99998C2.13185 7.99998 1.83337 7.7015 1.83337 7.33331C1.83337 6.96512 2.13185 6.66665 2.50004 6.66665C2.86823 6.66665 3.16671 6.96512 3.16671 7.33331Z" fill="url(#paint0_linear)"/>
</g>
</g>
<defs>
<filter id="filter0_d" x="1.83337" y="1.33331" width="9.33333" height="7.66667" filterUnits="userSpaceOnUse" color-interpolation-filters="sRGB">
<feFlood flood-opacity="0" result="BackgroundImageFix"/>
<feColorMatrix in="SourceAlpha" type="matrix" values="0 0 0 0 0 0 0 0 0 0 0 0 0 0 0 0 0 0 127 0"/>
<feOffset dy="1"/>
<feColorMatrix type="matrix" values="0 0 0 0 0 0 0 0 0 0 0 0 0 0 0 0 0 0 0.06 0"/>
<feBlend mode="normal" in2="BackgroundImageFix" result="effect1_dropShadow"/>
<feBlend mode="normal" in="SourceGraphic" in2="effect1_dropShadow" result="shape"/>
</filter>
<linearGradient id="paint0_linear" x1="1.83337" y1="1.33331" x2="1.83337" y2="7.99998" gradientUnits="userSpaceOnUse">
<stop stop-color="white"/>
<stop offset="1" stop-color="#F0F0F0"/>
</linearGradient>
</defs>
</svg>
